ISO-10303-21;
HEADER;
FILE_DESCRIPTION(('FreeCAD Model'),'2;1');
FILE_NAME('Open CASCADE Shape Model','2025-12-18T09:10:05',(''),(''),
  'Open CASCADE STEP processor 7.8','FreeCAD','Unknown');
FILE_SCHEMA(('AUTOMOTIVE_DESIGN { 1 0 10303 214 1 1 1 1 }'));
ENDSEC;
DATA;
#1 = APPLICATION_PROTOCOL_DEFINITION('international standard',
  'automotive_design',2000,#2);
#2 = APPLICATION_CONTEXT(
  'core data for automotive mechanical design processes');
#3 = SHAPE_DEFINITION_REPRESENTATION(#4,#10);
#4 = PRODUCT_DEFINITION_SHAPE('','',#5);
#5 = PRODUCT_DEFINITION('design','',#6,#9);
#6 = PRODUCT_DEFINITION_FORMATION('','',#7);
#7 = PRODUCT('Unnamed','Unnamed','',(#8));
#8 = PRODUCT_CONTEXT('',#2,'mechanical');
#9 = PRODUCT_DEFINITION_CONTEXT('part definition',#2,'design');
#10 = SHAPE_REPRESENTATION('',(#11,#15,#19,#23,#27,#31,#35,#39),#43);
#11 = AXIS2_PLACEMENT_3D('',#12,#13,#14);
#12 = CARTESIAN_POINT('',(0.,0.,0.));
#13 = DIRECTION('',(0.,0.,1.));
#14 = DIRECTION('',(1.,0.,-0.));
#15 = AXIS2_PLACEMENT_3D('',#16,#17,#18);
#16 = CARTESIAN_POINT('',(0.,0.,0.));
#17 = DIRECTION('',(0.,0.,1.));
#18 = DIRECTION('',(1.,0.,0.));
#19 = AXIS2_PLACEMENT_3D('',#20,#21,#22);
#20 = CARTESIAN_POINT('',(3.,0.3,-0.3));
#21 = DIRECTION('',(0.,0.,1.));
#22 = DIRECTION('',(1.,0.,0.));
#23 = AXIS2_PLACEMENT_3D('',#24,#25,#26);
#24 = CARTESIAN_POINT('',(3.,2.9,-0.3));
#25 = DIRECTION('',(0.,0.,1.));
#26 = DIRECTION('',(1.,0.,0.));
#27 = AXIS2_PLACEMENT_3D('',#28,#29,#30);
#28 = CARTESIAN_POINT('',(3.,5.5,-0.3));
#29 = DIRECTION('',(0.,0.,1.));
#30 = DIRECTION('',(1.,0.,0.));
#31 = AXIS2_PLACEMENT_3D('',#32,#33,#34);
#32 = CARTESIAN_POINT('',(-17.,0.,0.));
#33 = DIRECTION('',(0.,0.,1.));
#34 = DIRECTION('',(1.,0.,0.));
#35 = AXIS2_PLACEMENT_3D('',#36,#37,#38);
#36 = CARTESIAN_POINT('',(-17.,0.,0.));
#37 = DIRECTION('',(0.,0.,1.));
#38 = DIRECTION('',(1.,0.,0.));
#39 = AXIS2_PLACEMENT_3D('',#40,#41,#42);
#40 = CARTESIAN_POINT('',(-17.,0.,0.));
#41 = DIRECTION('',(0.,0.,1.));
#42 = DIRECTION('',(1.,0.,0.));
#43 = ( GEOMETRIC_REPRESENTATION_CONTEXT(3) 
GLOBAL_UNCERTAINTY_ASSIGNED_CONTEXT((#47)) GLOBAL_UNIT_ASSIGNED_CONTEXT(
(#44,#45,#46)) REPRESENTATION_CONTEXT('Context #1',
  '3D Context with UNIT and UNCERTAINTY') );
#44 = ( LENGTH_UNIT() NAMED_UNIT(*) SI_UNIT(.MILLI.,.METRE.) );
#45 = ( NAMED_UNIT(*) PLANE_ANGLE_UNIT() SI_UNIT($,.RADIAN.) );
#46 = ( NAMED_UNIT(*) SI_UNIT($,.STERADIAN.) SOLID_ANGLE_UNIT() );
#47 = UNCERTAINTY_MEASURE_WITH_UNIT(LENGTH_MEASURE(1.E-07),#44,
  'distance_accuracy_value','confusion accuracy');
#48 = PRODUCT_RELATED_PRODUCT_CATEGORY('part',$,(#7));
#49 = SHAPE_DEFINITION_REPRESENTATION(#50,#56);
#50 = PRODUCT_DEFINITION_SHAPE('','',#51);
#51 = PRODUCT_DEFINITION('design','',#52,#55);
#52 = PRODUCT_DEFINITION_FORMATION('','',#53);
#53 = PRODUCT('Тіло002','Тіло002','',(#54));
#54 = PRODUCT_CONTEXT('',#2,'mechanical');
#55 = PRODUCT_DEFINITION_CONTEXT('part definition',#2,'design');
#56 = ADVANCED_BREP_SHAPE_REPRESENTATION('',(#11,#57),#207);
#57 = MANIFOLD_SOLID_BREP('',#58);
#58 = CLOSED_SHELL('',(#59,#99,#130,#161,#183,#195));
#59 = ADVANCED_FACE('',(#60),#94,.F.);
#60 = FACE_BOUND('',#61,.F.);
#61 = EDGE_LOOP('',(#62,#72,#80,#88));
#62 = ORIENTED_EDGE('',*,*,#63,.T.);
#63 = EDGE_CURVE('',#64,#66,#68,.T.);
#64 = VERTEX_POINT('',#65);
#65 = CARTESIAN_POINT('',(-3.,-3.75,0.));
#66 = VERTEX_POINT('',#67);
#67 = CARTESIAN_POINT('',(-3.,-3.75,3.));
#68 = LINE('',#69,#70);
#69 = CARTESIAN_POINT('',(-3.,-3.75,0.));
#70 = VECTOR('',#71,1.);
#71 = DIRECTION('',(0.,0.,1.));
#72 = ORIENTED_EDGE('',*,*,#73,.T.);
#73 = EDGE_CURVE('',#66,#74,#76,.T.);
#74 = VERTEX_POINT('',#75);
#75 = CARTESIAN_POINT('',(3.,-3.75,3.));
#76 = LINE('',#77,#78);
#77 = CARTESIAN_POINT('',(-3.,-3.75,3.));
#78 = VECTOR('',#79,1.);
#79 = DIRECTION('',(1.,0.,0.));
#80 = ORIENTED_EDGE('',*,*,#81,.F.);
#81 = EDGE_CURVE('',#82,#74,#84,.T.);
#82 = VERTEX_POINT('',#83);
#83 = CARTESIAN_POINT('',(3.,-3.75,0.));
#84 = LINE('',#85,#86);
#85 = CARTESIAN_POINT('',(3.,-3.75,0.));
#86 = VECTOR('',#87,1.);
#87 = DIRECTION('',(0.,0.,1.));
#88 = ORIENTED_EDGE('',*,*,#89,.F.);
#89 = EDGE_CURVE('',#64,#82,#90,.T.);
#90 = LINE('',#91,#92);
#91 = CARTESIAN_POINT('',(-3.,-3.75,0.));
#92 = VECTOR('',#93,1.);
#93 = DIRECTION('',(1.,0.,0.));
#94 = PLANE('',#95);
#95 = AXIS2_PLACEMENT_3D('',#96,#97,#98);
#96 = CARTESIAN_POINT('',(-3.,-3.75,0.));
#97 = DIRECTION('',(0.,1.,0.));
#98 = DIRECTION('',(1.,0.,0.));
#99 = ADVANCED_FACE('',(#100),#125,.F.);
#100 = FACE_BOUND('',#101,.F.);
#101 = EDGE_LOOP('',(#102,#103,#111,#119));
#102 = ORIENTED_EDGE('',*,*,#81,.T.);
#103 = ORIENTED_EDGE('',*,*,#104,.T.);
#104 = EDGE_CURVE('',#74,#105,#107,.T.);
#105 = VERTEX_POINT('',#106);
#106 = CARTESIAN_POINT('',(3.,3.75,3.));
#107 = LINE('',#108,#109);
#108 = CARTESIAN_POINT('',(3.,-3.75,3.));
#109 = VECTOR('',#110,1.);
#110 = DIRECTION('',(0.,1.,0.));
#111 = ORIENTED_EDGE('',*,*,#112,.F.);
#112 = EDGE_CURVE('',#113,#105,#115,.T.);
#113 = VERTEX_POINT('',#114);
#114 = CARTESIAN_POINT('',(3.,3.75,0.));
#115 = LINE('',#116,#117);
#116 = CARTESIAN_POINT('',(3.,3.75,0.));
#117 = VECTOR('',#118,1.);
#118 = DIRECTION('',(0.,0.,1.));
#119 = ORIENTED_EDGE('',*,*,#120,.F.);
#120 = EDGE_CURVE('',#82,#113,#121,.T.);
#121 = LINE('',#122,#123);
#122 = CARTESIAN_POINT('',(3.,-3.75,0.));
#123 = VECTOR('',#124,1.);
#124 = DIRECTION('',(0.,1.,0.));
#125 = PLANE('',#126);
#126 = AXIS2_PLACEMENT_3D('',#127,#128,#129);
#127 = CARTESIAN_POINT('',(3.,-3.75,0.));
#128 = DIRECTION('',(-1.,0.,0.));
#129 = DIRECTION('',(0.,1.,0.));
#130 = ADVANCED_FACE('',(#131),#156,.F.);
#131 = FACE_BOUND('',#132,.F.);
#132 = EDGE_LOOP('',(#133,#134,#142,#150));
#133 = ORIENTED_EDGE('',*,*,#112,.T.);
#134 = ORIENTED_EDGE('',*,*,#135,.T.);
#135 = EDGE_CURVE('',#105,#136,#138,.T.);
#136 = VERTEX_POINT('',#137);
#137 = CARTESIAN_POINT('',(-3.,3.75,3.));
#138 = LINE('',#139,#140);
#139 = CARTESIAN_POINT('',(3.,3.75,3.));
#140 = VECTOR('',#141,1.);
#141 = DIRECTION('',(-1.,0.,0.));
#142 = ORIENTED_EDGE('',*,*,#143,.F.);
#143 = EDGE_CURVE('',#144,#136,#146,.T.);
#144 = VERTEX_POINT('',#145);
#145 = CARTESIAN_POINT('',(-3.,3.75,0.));
#146 = LINE('',#147,#148);
#147 = CARTESIAN_POINT('',(-3.,3.75,0.));
#148 = VECTOR('',#149,1.);
#149 = DIRECTION('',(0.,0.,1.));
#150 = ORIENTED_EDGE('',*,*,#151,.F.);
#151 = EDGE_CURVE('',#113,#144,#152,.T.);
#152 = LINE('',#153,#154);
#153 = CARTESIAN_POINT('',(3.,3.75,0.));
#154 = VECTOR('',#155,1.);
#155 = DIRECTION('',(-1.,0.,0.));
#156 = PLANE('',#157);
#157 = AXIS2_PLACEMENT_3D('',#158,#159,#160);
#158 = CARTESIAN_POINT('',(3.,3.75,0.));
#159 = DIRECTION('',(0.,-1.,0.));
#160 = DIRECTION('',(-1.,0.,0.));
#161 = ADVANCED_FACE('',(#162),#178,.F.);
#162 = FACE_BOUND('',#163,.F.);
#163 = EDGE_LOOP('',(#164,#165,#171,#172));
#164 = ORIENTED_EDGE('',*,*,#143,.T.);
#165 = ORIENTED_EDGE('',*,*,#166,.T.);
#166 = EDGE_CURVE('',#136,#66,#167,.T.);
#167 = LINE('',#168,#169);
#168 = CARTESIAN_POINT('',(-3.,3.75,3.));
#169 = VECTOR('',#170,1.);
#170 = DIRECTION('',(0.,-1.,0.));
#171 = ORIENTED_EDGE('',*,*,#63,.F.);
#172 = ORIENTED_EDGE('',*,*,#173,.F.);
#173 = EDGE_CURVE('',#144,#64,#174,.T.);
#174 = LINE('',#175,#176);
#175 = CARTESIAN_POINT('',(-3.,3.75,0.));
#176 = VECTOR('',#177,1.);
#177 = DIRECTION('',(0.,-1.,0.));
#178 = PLANE('',#179);
#179 = AXIS2_PLACEMENT_3D('',#180,#181,#182);
#180 = CARTESIAN_POINT('',(-3.,3.75,0.));
#181 = DIRECTION('',(1.,0.,0.));
#182 = DIRECTION('',(0.,-1.,0.));
#183 = ADVANCED_FACE('',(#184),#190,.F.);
#184 = FACE_BOUND('',#185,.F.);
#185 = EDGE_LOOP('',(#186,#187,#188,#189));
#186 = ORIENTED_EDGE('',*,*,#89,.T.);
#187 = ORIENTED_EDGE('',*,*,#120,.T.);
#188 = ORIENTED_EDGE('',*,*,#151,.T.);
#189 = ORIENTED_EDGE('',*,*,#173,.T.);
#190 = PLANE('',#191);
#191 = AXIS2_PLACEMENT_3D('',#192,#193,#194);
#192 = CARTESIAN_POINT('',(0.,0.,0.));
#193 = DIRECTION('',(0.,0.,1.));
#194 = DIRECTION('',(1.,0.,0.));
#195 = ADVANCED_FACE('',(#196),#202,.T.);
#196 = FACE_BOUND('',#197,.T.);
#197 = EDGE_LOOP('',(#198,#199,#200,#201));
#198 = ORIENTED_EDGE('',*,*,#73,.T.);
#199 = ORIENTED_EDGE('',*,*,#104,.T.);
#200 = ORIENTED_EDGE('',*,*,#135,.T.);
#201 = ORIENTED_EDGE('',*,*,#166,.T.);
#202 = PLANE('',#203);
#203 = AXIS2_PLACEMENT_3D('',#204,#205,#206);
#204 = CARTESIAN_POINT('',(0.,0.,3.));
#205 = DIRECTION('',(0.,0.,1.));
#206 = DIRECTION('',(1.,0.,0.));
#207 = ( GEOMETRIC_REPRESENTATION_CONTEXT(3) 
GLOBAL_UNCERTAINTY_ASSIGNED_CONTEXT((#211)) GLOBAL_UNIT_ASSIGNED_CONTEXT
((#208,#209,#210)) REPRESENTATION_CONTEXT('Context #1',
  '3D Context with UNIT and UNCERTAINTY') );
#208 = ( LENGTH_UNIT() NAMED_UNIT(*) SI_UNIT(.MILLI.,.METRE.) );
#209 = ( NAMED_UNIT(*) PLANE_ANGLE_UNIT() SI_UNIT($,.RADIAN.) );
#210 = ( NAMED_UNIT(*) SI_UNIT($,.STERADIAN.) SOLID_ANGLE_UNIT() );
#211 = UNCERTAINTY_MEASURE_WITH_UNIT(LENGTH_MEASURE(1.E-07),#208,
  'distance_accuracy_value','confusion accuracy');
#212 = CONTEXT_DEPENDENT_SHAPE_REPRESENTATION(#213,#215);
#213 = ( REPRESENTATION_RELATIONSHIP('','',#56,#10) 
REPRESENTATION_RELATIONSHIP_WITH_TRANSFORMATION(#214) 
SHAPE_REPRESENTATION_RELATIONSHIP() );
#214 = ITEM_DEFINED_TRANSFORMATION('','',#11,#15);
#215 = PRODUCT_DEFINITION_SHAPE('Placement','Placement of an item',#216
  );
#216 = NEXT_ASSEMBLY_USAGE_OCCURRENCE('1','Тіло002','',#5,#51,$);
#217 = PRODUCT_RELATED_PRODUCT_CATEGORY('part',$,(#53));
#218 = SHAPE_DEFINITION_REPRESENTATION(#219,#225);
#219 = PRODUCT_DEFINITION_SHAPE('','',#220);
#220 = PRODUCT_DEFINITION('design','',#221,#224);
#221 = PRODUCT_DEFINITION_FORMATION('','',#222);
#222 = PRODUCT('Тіло003','Тіло003','',(#223));
#223 = PRODUCT_CONTEXT('',#2,'mechanical');
#224 = PRODUCT_DEFINITION_CONTEXT('part definition',#2,'design');
#225 = ADVANCED_BREP_SHAPE_REPRESENTATION('',(#11,#226),#376);
#226 = MANIFOLD_SOLID_BREP('',#227);
#227 = CLOSED_SHELL('',(#228,#268,#299,#330,#352,#364));
#228 = ADVANCED_FACE('',(#229),#263,.F.);
#229 = FACE_BOUND('',#230,.F.);
#230 = EDGE_LOOP('',(#231,#241,#249,#257));
#231 = ORIENTED_EDGE('',*,*,#232,.T.);
#232 = EDGE_CURVE('',#233,#235,#237,.T.);
#233 = VERTEX_POINT('',#234);
#234 = CARTESIAN_POINT('',(-5.551115123126E-17,-3.263502,2.042104));
#235 = VERTEX_POINT('',#236);
#236 = CARTESIAN_POINT('',(11.,-3.263502,2.042104));
#237 = LINE('',#238,#239);
#238 = CARTESIAN_POINT('',(-3.560551853354E-17,-3.263502,2.042104));
#239 = VECTOR('',#240,1.);
#240 = DIRECTION('',(1.,1.110223024625E-16,2.775557561563E-16));
#241 = ORIENTED_EDGE('',*,*,#242,.T.);
#242 = EDGE_CURVE('',#235,#243,#245,.T.);
#243 = VERTEX_POINT('',#244);
#244 = CARTESIAN_POINT('',(11.,-3.263502,1.692104));
#245 = LINE('',#246,#247);
#246 = CARTESIAN_POINT('',(11.,-3.263502,2.042104));
#247 = VECTOR('',#248,1.);
#248 = DIRECTION('',(1.110223024625E-16,-4.440892098501E-16,-1.));
#249 = ORIENTED_EDGE('',*,*,#250,.F.);
#250 = EDGE_CURVE('',#251,#243,#253,.T.);
#251 = VERTEX_POINT('',#252);
#252 = CARTESIAN_POINT('',(1.110223024625E-16,-3.263502,1.692104));
#253 = LINE('',#254,#255);
#254 = CARTESIAN_POINT('',(4.211009319022E-17,-3.263502,1.692104));
#255 = VECTOR('',#256,1.);
#256 = DIRECTION('',(1.,1.110223024625E-16,2.775557561563E-16));
#257 = ORIENTED_EDGE('',*,*,#258,.F.);
#258 = EDGE_CURVE('',#233,#251,#259,.T.);
#259 = LINE('',#260,#261);
#260 = CARTESIAN_POINT('',(-1.712079367167E-16,-3.263502,2.042104));
#261 = VECTOR('',#262,1.);
#262 = DIRECTION('',(1.110223024625E-16,-4.440892098501E-16,-1.));
#263 = PLANE('',#264);
#264 = AXIS2_PLACEMENT_3D('',#265,#266,#267);
#265 = CARTESIAN_POINT('',(-3.560551853354E-17,-3.263502,2.042104));
#266 = DIRECTION('',(-1.110223024625E-16,1.,-3.330669073875E-16));
#267 = DIRECTION('',(2.22044604925E-16,-3.330669073875E-16,-1.));
#268 = ADVANCED_FACE('',(#269),#294,.F.);
#269 = FACE_BOUND('',#270,.F.);
#270 = EDGE_LOOP('',(#271,#272,#280,#288));
#271 = ORIENTED_EDGE('',*,*,#250,.T.);
#272 = ORIENTED_EDGE('',*,*,#273,.T.);
#273 = EDGE_CURVE('',#243,#274,#276,.T.);
#274 = VERTEX_POINT('',#275);
#275 = CARTESIAN_POINT('',(11.,-2.563502,1.692104));
#276 = LINE('',#277,#278);
#277 = CARTESIAN_POINT('',(11.,-3.263502,1.692104));
#278 = VECTOR('',#279,1.);
#279 = DIRECTION('',(-8.628166150855E-32,1.,-1.110223024625E-16));
#280 = ORIENTED_EDGE('',*,*,#281,.F.);
#281 = EDGE_CURVE('',#282,#274,#284,.T.);
#282 = VERTEX_POINT('',#283);
#283 = CARTESIAN_POINT('',(-5.551115123126E-17,-2.563502,1.692104));
#284 = LINE('',#285,#286);
#285 = CARTESIAN_POINT('',(-3.560551853354E-17,-2.563502,1.692104));
#286 = VECTOR('',#287,1.);
#287 = DIRECTION('',(1.,1.110223024625E-16,2.775557561563E-16));
#288 = ORIENTED_EDGE('',*,*,#289,.F.);
#289 = EDGE_CURVE('',#251,#282,#290,.T.);
#290 = LINE('',#291,#292);
#291 = CARTESIAN_POINT('',(-1.323501308548E-16,-3.263502,1.692104));
#292 = VECTOR('',#293,1.);
#293 = DIRECTION('',(-8.628166150855E-32,1.,-1.110223024625E-16));
#294 = PLANE('',#295);
#295 = AXIS2_PLACEMENT_3D('',#296,#297,#298);
#296 = CARTESIAN_POINT('',(4.211009319022E-17,-3.263502,1.692104));
#297 = DIRECTION('',(-2.775557561563E-16,2.22044604925E-16,1.));
#298 = DIRECTION('',(-1.110223024625E-16,1.,-2.22044604925E-16));
#299 = ADVANCED_FACE('',(#300),#325,.F.);
#300 = FACE_BOUND('',#301,.F.);
#301 = EDGE_LOOP('',(#302,#303,#311,#319));
#302 = ORIENTED_EDGE('',*,*,#281,.T.);
#303 = ORIENTED_EDGE('',*,*,#304,.T.);
#304 = EDGE_CURVE('',#274,#305,#307,.T.);
#305 = VERTEX_POINT('',#306);
#306 = CARTESIAN_POINT('',(11.,-2.563502,2.042104));
#307 = LINE('',#308,#309);
#308 = CARTESIAN_POINT('',(11.,-2.563502,1.692104));
#309 = VECTOR('',#310,1.);
#310 = DIRECTION('',(-1.110223024625E-16,4.440892098501E-16,1.));
#311 = ORIENTED_EDGE('',*,*,#312,.F.);
#312 = EDGE_CURVE('',#313,#305,#315,.T.);
#313 = VERTEX_POINT('',#314);
#314 = CARTESIAN_POINT('',(-1.110223024625E-16,-2.563502,2.042104));
#315 = LINE('',#316,#317);
#316 = CARTESIAN_POINT('',(-1.133211302573E-16,-2.563502,2.042104));
#317 = VECTOR('',#318,1.);
#318 = DIRECTION('',(1.,1.110223024625E-16,2.775557561563E-16));
#319 = ORIENTED_EDGE('',*,*,#320,.F.);
#320 = EDGE_CURVE('',#282,#313,#321,.T.);
#321 = LINE('',#322,#323);
#322 = CARTESIAN_POINT('',(-1.323501308548E-16,-2.563502,1.692104));
#323 = VECTOR('',#324,1.);
#324 = DIRECTION('',(-1.110223024625E-16,4.440892098501E-16,1.));
#325 = PLANE('',#326);
#326 = AXIS2_PLACEMENT_3D('',#327,#328,#329);
#327 = CARTESIAN_POINT('',(-3.560551853354E-17,-2.563502,1.692104));
#328 = DIRECTION('',(1.110223024625E-16,-1.,3.330669073875E-16));
#329 = DIRECTION('',(-2.22044604925E-16,3.330669073875E-16,1.));
#330 = ADVANCED_FACE('',(#331),#347,.F.);
#331 = FACE_BOUND('',#332,.F.);
#332 = EDGE_LOOP('',(#333,#334,#340,#341));
#333 = ORIENTED_EDGE('',*,*,#312,.T.);
#334 = ORIENTED_EDGE('',*,*,#335,.T.);
#335 = EDGE_CURVE('',#305,#235,#336,.T.);
#336 = LINE('',#337,#338);
#337 = CARTESIAN_POINT('',(11.,-2.563502,2.042104));
#338 = VECTOR('',#339,1.);
#339 = DIRECTION('',(8.628166150855E-32,-1.,1.110223024625E-16));
#340 = ORIENTED_EDGE('',*,*,#232,.F.);
#341 = ORIENTED_EDGE('',*,*,#342,.F.);
#342 = EDGE_CURVE('',#313,#233,#343,.T.);
#343 = LINE('',#344,#345);
#344 = CARTESIAN_POINT('',(-1.712079367167E-16,-2.563502,2.042104));
#345 = VECTOR('',#346,1.);
#346 = DIRECTION('',(8.628166150855E-32,-1.,1.110223024625E-16));
#347 = PLANE('',#348);
#348 = AXIS2_PLACEMENT_3D('',#349,#350,#351);
#349 = CARTESIAN_POINT('',(-1.133211302573E-16,-2.563502,2.042104));
#350 = DIRECTION('',(2.775557561563E-16,-2.22044604925E-16,-1.));
#351 = DIRECTION('',(1.110223024625E-16,-1.,2.22044604925E-16));
#352 = ADVANCED_FACE('',(#353),#359,.F.);
#353 = FACE_BOUND('',#354,.F.);
#354 = EDGE_LOOP('',(#355,#356,#357,#358));
#355 = ORIENTED_EDGE('',*,*,#258,.T.);
#356 = ORIENTED_EDGE('',*,*,#289,.T.);
#357 = ORIENTED_EDGE('',*,*,#320,.T.);
#358 = ORIENTED_EDGE('',*,*,#342,.T.);
#359 = PLANE('',#360);
#360 = AXIS2_PLACEMENT_3D('',#361,#362,#363);
#361 = CARTESIAN_POINT('',(-3.330669073875E-16,-2.913502,1.867104));
#362 = DIRECTION('',(1.,3.330669073875E-16,2.22044604925E-16));
#363 = DIRECTION('',(1.110223024625E-16,2.22044604925E-16,1.));
#364 = ADVANCED_FACE('',(#365),#371,.T.);
#365 = FACE_BOUND('',#366,.T.);
#366 = EDGE_LOOP('',(#367,#368,#369,#370));
#367 = ORIENTED_EDGE('',*,*,#242,.T.);
#368 = ORIENTED_EDGE('',*,*,#273,.T.);
#369 = ORIENTED_EDGE('',*,*,#304,.T.);
#370 = ORIENTED_EDGE('',*,*,#335,.T.);
#371 = PLANE('',#372);
#372 = AXIS2_PLACEMENT_3D('',#373,#374,#375);
#373 = CARTESIAN_POINT('',(11.,-2.913502,1.867104));
#374 = DIRECTION('',(1.,3.330669073875E-16,2.22044604925E-16));
#375 = DIRECTION('',(1.110223024625E-16,2.22044604925E-16,1.));
#376 = ( GEOMETRIC_REPRESENTATION_CONTEXT(3) 
GLOBAL_UNCERTAINTY_ASSIGNED_CONTEXT((#380)) GLOBAL_UNIT_ASSIGNED_CONTEXT
((#377,#378,#379)) REPRESENTATION_CONTEXT('Context #1',
  '3D Context with UNIT and UNCERTAINTY') );
#377 = ( LENGTH_UNIT() NAMED_UNIT(*) SI_UNIT(.MILLI.,.METRE.) );
#378 = ( NAMED_UNIT(*) PLANE_ANGLE_UNIT() SI_UNIT($,.RADIAN.) );
#379 = ( NAMED_UNIT(*) SI_UNIT($,.STERADIAN.) SOLID_ANGLE_UNIT() );
#380 = UNCERTAINTY_MEASURE_WITH_UNIT(LENGTH_MEASURE(1.E-07),#377,
  'distance_accuracy_value','confusion accuracy');
#381 = CONTEXT_DEPENDENT_SHAPE_REPRESENTATION(#382,#384);
#382 = ( REPRESENTATION_RELATIONSHIP('','',#225,#10) 
REPRESENTATION_RELATIONSHIP_WITH_TRANSFORMATION(#383) 
SHAPE_REPRESENTATION_RELATIONSHIP() );
#383 = ITEM_DEFINED_TRANSFORMATION('','',#11,#19);
#384 = PRODUCT_DEFINITION_SHAPE('Placement','Placement of an item',#385
  );
#385 = NEXT_ASSEMBLY_USAGE_OCCURRENCE('2','Тіло003','',#5,#220,$);
#386 = PRODUCT_RELATED_PRODUCT_CATEGORY('part',$,(#222));
#387 = SHAPE_DEFINITION_REPRESENTATION(#388,#394);
#388 = PRODUCT_DEFINITION_SHAPE('','',#389);
#389 = PRODUCT_DEFINITION('design','',#390,#393);
#390 = PRODUCT_DEFINITION_FORMATION('','',#391);
#391 = PRODUCT('Тіло004','Тіло004','',(#392));
#392 = PRODUCT_CONTEXT('',#2,'mechanical');
#393 = PRODUCT_DEFINITION_CONTEXT('part definition',#2,'design');
#394 = ADVANCED_BREP_SHAPE_REPRESENTATION('',(#11,#395),#545);
#395 = MANIFOLD_SOLID_BREP('',#396);
#396 = CLOSED_SHELL('',(#397,#437,#468,#499,#521,#533));
#397 = ADVANCED_FACE('',(#398),#432,.F.);
#398 = FACE_BOUND('',#399,.F.);
#399 = EDGE_LOOP('',(#400,#410,#418,#426));
#400 = ORIENTED_EDGE('',*,*,#401,.T.);
#401 = EDGE_CURVE('',#402,#404,#406,.T.);
#402 = VERTEX_POINT('',#403);
#403 = CARTESIAN_POINT('',(-5.551115123126E-17,-3.263502,2.042104));
#404 = VERTEX_POINT('',#405);
#405 = CARTESIAN_POINT('',(11.,-3.263502,2.042104));
#406 = LINE('',#407,#408);
#407 = CARTESIAN_POINT('',(-3.560551853354E-17,-3.263502,2.042104));
#408 = VECTOR('',#409,1.);
#409 = DIRECTION('',(1.,1.110223024625E-16,2.775557561563E-16));
#410 = ORIENTED_EDGE('',*,*,#411,.T.);
#411 = EDGE_CURVE('',#404,#412,#414,.T.);
#412 = VERTEX_POINT('',#413);
#413 = CARTESIAN_POINT('',(11.,-3.263502,1.692104));
#414 = LINE('',#415,#416);
#415 = CARTESIAN_POINT('',(11.,-3.263502,2.042104));
#416 = VECTOR('',#417,1.);
#417 = DIRECTION('',(1.110223024625E-16,-4.440892098501E-16,-1.));
#418 = ORIENTED_EDGE('',*,*,#419,.F.);
#419 = EDGE_CURVE('',#420,#412,#422,.T.);
#420 = VERTEX_POINT('',#421);
#421 = CARTESIAN_POINT('',(1.110223024625E-16,-3.263502,1.692104));
#422 = LINE('',#423,#424);
#423 = CARTESIAN_POINT('',(4.211009319022E-17,-3.263502,1.692104));
#424 = VECTOR('',#425,1.);
#425 = DIRECTION('',(1.,1.110223024625E-16,2.775557561563E-16));
#426 = ORIENTED_EDGE('',*,*,#427,.F.);
#427 = EDGE_CURVE('',#402,#420,#428,.T.);
#428 = LINE('',#429,#430);
#429 = CARTESIAN_POINT('',(-1.712079367167E-16,-3.263502,2.042104));
#430 = VECTOR('',#431,1.);
#431 = DIRECTION('',(1.110223024625E-16,-4.440892098501E-16,-1.));
#432 = PLANE('',#433);
#433 = AXIS2_PLACEMENT_3D('',#434,#435,#436);
#434 = CARTESIAN_POINT('',(-3.560551853354E-17,-3.263502,2.042104));
#435 = DIRECTION('',(-1.110223024625E-16,1.,-3.330669073875E-16));
#436 = DIRECTION('',(2.22044604925E-16,-3.330669073875E-16,-1.));
#437 = ADVANCED_FACE('',(#438),#463,.F.);
#438 = FACE_BOUND('',#439,.F.);
#439 = EDGE_LOOP('',(#440,#441,#449,#457));
#440 = ORIENTED_EDGE('',*,*,#419,.T.);
#441 = ORIENTED_EDGE('',*,*,#442,.T.);
#442 = EDGE_CURVE('',#412,#443,#445,.T.);
#443 = VERTEX_POINT('',#444);
#444 = CARTESIAN_POINT('',(11.,-2.563502,1.692104));
#445 = LINE('',#446,#447);
#446 = CARTESIAN_POINT('',(11.,-3.263502,1.692104));
#447 = VECTOR('',#448,1.);
#448 = DIRECTION('',(-8.628166150855E-32,1.,-1.110223024625E-16));
#449 = ORIENTED_EDGE('',*,*,#450,.F.);
#450 = EDGE_CURVE('',#451,#443,#453,.T.);
#451 = VERTEX_POINT('',#452);
#452 = CARTESIAN_POINT('',(-5.551115123126E-17,-2.563502,1.692104));
#453 = LINE('',#454,#455);
#454 = CARTESIAN_POINT('',(-3.560551853354E-17,-2.563502,1.692104));
#455 = VECTOR('',#456,1.);
#456 = DIRECTION('',(1.,1.110223024625E-16,2.775557561563E-16));
#457 = ORIENTED_EDGE('',*,*,#458,.F.);
#458 = EDGE_CURVE('',#420,#451,#459,.T.);
#459 = LINE('',#460,#461);
#460 = CARTESIAN_POINT('',(-1.323501308548E-16,-3.263502,1.692104));
#461 = VECTOR('',#462,1.);
#462 = DIRECTION('',(-8.628166150855E-32,1.,-1.110223024625E-16));
#463 = PLANE('',#464);
#464 = AXIS2_PLACEMENT_3D('',#465,#466,#467);
#465 = CARTESIAN_POINT('',(4.211009319022E-17,-3.263502,1.692104));
#466 = DIRECTION('',(-2.775557561563E-16,2.22044604925E-16,1.));
#467 = DIRECTION('',(-1.110223024625E-16,1.,-2.22044604925E-16));
#468 = ADVANCED_FACE('',(#469),#494,.F.);
#469 = FACE_BOUND('',#470,.F.);
#470 = EDGE_LOOP('',(#471,#472,#480,#488));
#471 = ORIENTED_EDGE('',*,*,#450,.T.);
#472 = ORIENTED_EDGE('',*,*,#473,.T.);
#473 = EDGE_CURVE('',#443,#474,#476,.T.);
#474 = VERTEX_POINT('',#475);
#475 = CARTESIAN_POINT('',(11.,-2.563502,2.042104));
#476 = LINE('',#477,#478);
#477 = CARTESIAN_POINT('',(11.,-2.563502,1.692104));
#478 = VECTOR('',#479,1.);
#479 = DIRECTION('',(-1.110223024625E-16,4.440892098501E-16,1.));
#480 = ORIENTED_EDGE('',*,*,#481,.F.);
#481 = EDGE_CURVE('',#482,#474,#484,.T.);
#482 = VERTEX_POINT('',#483);
#483 = CARTESIAN_POINT('',(-1.110223024625E-16,-2.563502,2.042104));
#484 = LINE('',#485,#486);
#485 = CARTESIAN_POINT('',(-1.133211302573E-16,-2.563502,2.042104));
#486 = VECTOR('',#487,1.);
#487 = DIRECTION('',(1.,1.110223024625E-16,2.775557561563E-16));
#488 = ORIENTED_EDGE('',*,*,#489,.F.);
#489 = EDGE_CURVE('',#451,#482,#490,.T.);
#490 = LINE('',#491,#492);
#491 = CARTESIAN_POINT('',(-1.323501308548E-16,-2.563502,1.692104));
#492 = VECTOR('',#493,1.);
#493 = DIRECTION('',(-1.110223024625E-16,4.440892098501E-16,1.));
#494 = PLANE('',#495);
#495 = AXIS2_PLACEMENT_3D('',#496,#497,#498);
#496 = CARTESIAN_POINT('',(-3.560551853354E-17,-2.563502,1.692104));
#497 = DIRECTION('',(1.110223024625E-16,-1.,3.330669073875E-16));
#498 = DIRECTION('',(-2.22044604925E-16,3.330669073875E-16,1.));
#499 = ADVANCED_FACE('',(#500),#516,.F.);
#500 = FACE_BOUND('',#501,.F.);
#501 = EDGE_LOOP('',(#502,#503,#509,#510));
#502 = ORIENTED_EDGE('',*,*,#481,.T.);
#503 = ORIENTED_EDGE('',*,*,#504,.T.);
#504 = EDGE_CURVE('',#474,#404,#505,.T.);
#505 = LINE('',#506,#507);
#506 = CARTESIAN_POINT('',(11.,-2.563502,2.042104));
#507 = VECTOR('',#508,1.);
#508 = DIRECTION('',(8.628166150855E-32,-1.,1.110223024625E-16));
#509 = ORIENTED_EDGE('',*,*,#401,.F.);
#510 = ORIENTED_EDGE('',*,*,#511,.F.);
#511 = EDGE_CURVE('',#482,#402,#512,.T.);
#512 = LINE('',#513,#514);
#513 = CARTESIAN_POINT('',(-1.712079367167E-16,-2.563502,2.042104));
#514 = VECTOR('',#515,1.);
#515 = DIRECTION('',(8.628166150855E-32,-1.,1.110223024625E-16));
#516 = PLANE('',#517);
#517 = AXIS2_PLACEMENT_3D('',#518,#519,#520);
#518 = CARTESIAN_POINT('',(-1.133211302573E-16,-2.563502,2.042104));
#519 = DIRECTION('',(2.775557561563E-16,-2.22044604925E-16,-1.));
#520 = DIRECTION('',(1.110223024625E-16,-1.,2.22044604925E-16));
#521 = ADVANCED_FACE('',(#522),#528,.F.);
#522 = FACE_BOUND('',#523,.F.);
#523 = EDGE_LOOP('',(#524,#525,#526,#527));
#524 = ORIENTED_EDGE('',*,*,#427,.T.);
#525 = ORIENTED_EDGE('',*,*,#458,.T.);
#526 = ORIENTED_EDGE('',*,*,#489,.T.);
#527 = ORIENTED_EDGE('',*,*,#511,.T.);
#528 = PLANE('',#529);
#529 = AXIS2_PLACEMENT_3D('',#530,#531,#532);
#530 = CARTESIAN_POINT('',(-3.330669073875E-16,-2.913502,1.867104));
#531 = DIRECTION('',(1.,3.330669073875E-16,2.22044604925E-16));
#532 = DIRECTION('',(1.110223024625E-16,2.22044604925E-16,1.));
#533 = ADVANCED_FACE('',(#534),#540,.T.);
#534 = FACE_BOUND('',#535,.T.);
#535 = EDGE_LOOP('',(#536,#537,#538,#539));
#536 = ORIENTED_EDGE('',*,*,#411,.T.);
#537 = ORIENTED_EDGE('',*,*,#442,.T.);
#538 = ORIENTED_EDGE('',*,*,#473,.T.);
#539 = ORIENTED_EDGE('',*,*,#504,.T.);
#540 = PLANE('',#541);
#541 = AXIS2_PLACEMENT_3D('',#542,#543,#544);
#542 = CARTESIAN_POINT('',(11.,-2.913502,1.867104));
#543 = DIRECTION('',(1.,3.330669073875E-16,2.22044604925E-16));
#544 = DIRECTION('',(1.110223024625E-16,2.22044604925E-16,1.));
#545 = ( GEOMETRIC_REPRESENTATION_CONTEXT(3) 
GLOBAL_UNCERTAINTY_ASSIGNED_CONTEXT((#549)) GLOBAL_UNIT_ASSIGNED_CONTEXT
((#546,#547,#548)) REPRESENTATION_CONTEXT('Context #1',
  '3D Context with UNIT and UNCERTAINTY') );
#546 = ( LENGTH_UNIT() NAMED_UNIT(*) SI_UNIT(.MILLI.,.METRE.) );
#547 = ( NAMED_UNIT(*) PLANE_ANGLE_UNIT() SI_UNIT($,.RADIAN.) );
#548 = ( NAMED_UNIT(*) SI_UNIT($,.STERADIAN.) SOLID_ANGLE_UNIT() );
#549 = UNCERTAINTY_MEASURE_WITH_UNIT(LENGTH_MEASURE(1.E-07),#546,
  'distance_accuracy_value','confusion accuracy');
#550 = CONTEXT_DEPENDENT_SHAPE_REPRESENTATION(#551,#553);
#551 = ( REPRESENTATION_RELATIONSHIP('','',#394,#10) 
REPRESENTATION_RELATIONSHIP_WITH_TRANSFORMATION(#552) 
SHAPE_REPRESENTATION_RELATIONSHIP() );
#552 = ITEM_DEFINED_TRANSFORMATION('','',#11,#23);
#553 = PRODUCT_DEFINITION_SHAPE('Placement','Placement of an item',#554
  );
#554 = NEXT_ASSEMBLY_USAGE_OCCURRENCE('3','Тіло004','',#5,#389,$);
#555 = PRODUCT_RELATED_PRODUCT_CATEGORY('part',$,(#391));
#556 = SHAPE_DEFINITION_REPRESENTATION(#557,#563);
#557 = PRODUCT_DEFINITION_SHAPE('','',#558);
#558 = PRODUCT_DEFINITION('design','',#559,#562);
#559 = PRODUCT_DEFINITION_FORMATION('','',#560);
#560 = PRODUCT('Тіло005','Тіло005','',(#561));
#561 = PRODUCT_CONTEXT('',#2,'mechanical');
#562 = PRODUCT_DEFINITION_CONTEXT('part definition',#2,'design');
#563 = ADVANCED_BREP_SHAPE_REPRESENTATION('',(#11,#564),#714);
#564 = MANIFOLD_SOLID_BREP('',#565);
#565 = CLOSED_SHELL('',(#566,#606,#637,#668,#690,#702));
#566 = ADVANCED_FACE('',(#567),#601,.F.);
#567 = FACE_BOUND('',#568,.F.);
#568 = EDGE_LOOP('',(#569,#579,#587,#595));
#569 = ORIENTED_EDGE('',*,*,#570,.T.);
#570 = EDGE_CURVE('',#571,#573,#575,.T.);
#571 = VERTEX_POINT('',#572);
#572 = CARTESIAN_POINT('',(-5.551115123126E-17,-3.263502,2.042104));
#573 = VERTEX_POINT('',#574);
#574 = CARTESIAN_POINT('',(11.,-3.263502,2.042104));
#575 = LINE('',#576,#577);
#576 = CARTESIAN_POINT('',(-3.560551853354E-17,-3.263502,2.042104));
#577 = VECTOR('',#578,1.);
#578 = DIRECTION('',(1.,1.110223024625E-16,2.775557561563E-16));
#579 = ORIENTED_EDGE('',*,*,#580,.T.);
#580 = EDGE_CURVE('',#573,#581,#583,.T.);
#581 = VERTEX_POINT('',#582);
#582 = CARTESIAN_POINT('',(11.,-3.263502,1.692104));
#583 = LINE('',#584,#585);
#584 = CARTESIAN_POINT('',(11.,-3.263502,2.042104));
#585 = VECTOR('',#586,1.);
#586 = DIRECTION('',(1.110223024625E-16,-4.440892098501E-16,-1.));
#587 = ORIENTED_EDGE('',*,*,#588,.F.);
#588 = EDGE_CURVE('',#589,#581,#591,.T.);
#589 = VERTEX_POINT('',#590);
#590 = CARTESIAN_POINT('',(1.110223024625E-16,-3.263502,1.692104));
#591 = LINE('',#592,#593);
#592 = CARTESIAN_POINT('',(4.211009319022E-17,-3.263502,1.692104));
#593 = VECTOR('',#594,1.);
#594 = DIRECTION('',(1.,1.110223024625E-16,2.775557561563E-16));
#595 = ORIENTED_EDGE('',*,*,#596,.F.);
#596 = EDGE_CURVE('',#571,#589,#597,.T.);
#597 = LINE('',#598,#599);
#598 = CARTESIAN_POINT('',(-1.712079367167E-16,-3.263502,2.042104));
#599 = VECTOR('',#600,1.);
#600 = DIRECTION('',(1.110223024625E-16,-4.440892098501E-16,-1.));
#601 = PLANE('',#602);
#602 = AXIS2_PLACEMENT_3D('',#603,#604,#605);
#603 = CARTESIAN_POINT('',(-3.560551853354E-17,-3.263502,2.042104));
#604 = DIRECTION('',(-1.110223024625E-16,1.,-3.330669073875E-16));
#605 = DIRECTION('',(2.22044604925E-16,-3.330669073875E-16,-1.));
#606 = ADVANCED_FACE('',(#607),#632,.F.);
#607 = FACE_BOUND('',#608,.F.);
#608 = EDGE_LOOP('',(#609,#610,#618,#626));
#609 = ORIENTED_EDGE('',*,*,#588,.T.);
#610 = ORIENTED_EDGE('',*,*,#611,.T.);
#611 = EDGE_CURVE('',#581,#612,#614,.T.);
#612 = VERTEX_POINT('',#613);
#613 = CARTESIAN_POINT('',(11.,-2.563502,1.692104));
#614 = LINE('',#615,#616);
#615 = CARTESIAN_POINT('',(11.,-3.263502,1.692104));
#616 = VECTOR('',#617,1.);
#617 = DIRECTION('',(-8.628166150855E-32,1.,-1.110223024625E-16));
#618 = ORIENTED_EDGE('',*,*,#619,.F.);
#619 = EDGE_CURVE('',#620,#612,#622,.T.);
#620 = VERTEX_POINT('',#621);
#621 = CARTESIAN_POINT('',(-5.551115123126E-17,-2.563502,1.692104));
#622 = LINE('',#623,#624);
#623 = CARTESIAN_POINT('',(-3.560551853354E-17,-2.563502,1.692104));
#624 = VECTOR('',#625,1.);
#625 = DIRECTION('',(1.,1.110223024625E-16,2.775557561563E-16));
#626 = ORIENTED_EDGE('',*,*,#627,.F.);
#627 = EDGE_CURVE('',#589,#620,#628,.T.);
#628 = LINE('',#629,#630);
#629 = CARTESIAN_POINT('',(-1.323501308548E-16,-3.263502,1.692104));
#630 = VECTOR('',#631,1.);
#631 = DIRECTION('',(-8.628166150855E-32,1.,-1.110223024625E-16));
#632 = PLANE('',#633);
#633 = AXIS2_PLACEMENT_3D('',#634,#635,#636);
#634 = CARTESIAN_POINT('',(4.211009319022E-17,-3.263502,1.692104));
#635 = DIRECTION('',(-2.775557561563E-16,2.22044604925E-16,1.));
#636 = DIRECTION('',(-1.110223024625E-16,1.,-2.22044604925E-16));
#637 = ADVANCED_FACE('',(#638),#663,.F.);
#638 = FACE_BOUND('',#639,.F.);
#639 = EDGE_LOOP('',(#640,#641,#649,#657));
#640 = ORIENTED_EDGE('',*,*,#619,.T.);
#641 = ORIENTED_EDGE('',*,*,#642,.T.);
#642 = EDGE_CURVE('',#612,#643,#645,.T.);
#643 = VERTEX_POINT('',#644);
#644 = CARTESIAN_POINT('',(11.,-2.563502,2.042104));
#645 = LINE('',#646,#647);
#646 = CARTESIAN_POINT('',(11.,-2.563502,1.692104));
#647 = VECTOR('',#648,1.);
#648 = DIRECTION('',(-1.110223024625E-16,4.440892098501E-16,1.));
#649 = ORIENTED_EDGE('',*,*,#650,.F.);
#650 = EDGE_CURVE('',#651,#643,#653,.T.);
#651 = VERTEX_POINT('',#652);
#652 = CARTESIAN_POINT('',(-1.110223024625E-16,-2.563502,2.042104));
#653 = LINE('',#654,#655);
#654 = CARTESIAN_POINT('',(-1.133211302573E-16,-2.563502,2.042104));
#655 = VECTOR('',#656,1.);
#656 = DIRECTION('',(1.,1.110223024625E-16,2.775557561563E-16));
#657 = ORIENTED_EDGE('',*,*,#658,.F.);
#658 = EDGE_CURVE('',#620,#651,#659,.T.);
#659 = LINE('',#660,#661);
#660 = CARTESIAN_POINT('',(-1.323501308548E-16,-2.563502,1.692104));
#661 = VECTOR('',#662,1.);
#662 = DIRECTION('',(-1.110223024625E-16,4.440892098501E-16,1.));
#663 = PLANE('',#664);
#664 = AXIS2_PLACEMENT_3D('',#665,#666,#667);
#665 = CARTESIAN_POINT('',(-3.560551853354E-17,-2.563502,1.692104));
#666 = DIRECTION('',(1.110223024625E-16,-1.,3.330669073875E-16));
#667 = DIRECTION('',(-2.22044604925E-16,3.330669073875E-16,1.));
#668 = ADVANCED_FACE('',(#669),#685,.F.);
#669 = FACE_BOUND('',#670,.F.);
#670 = EDGE_LOOP('',(#671,#672,#678,#679));
#671 = ORIENTED_EDGE('',*,*,#650,.T.);
#672 = ORIENTED_EDGE('',*,*,#673,.T.);
#673 = EDGE_CURVE('',#643,#573,#674,.T.);
#674 = LINE('',#675,#676);
#675 = CARTESIAN_POINT('',(11.,-2.563502,2.042104));
#676 = VECTOR('',#677,1.);
#677 = DIRECTION('',(8.628166150855E-32,-1.,1.110223024625E-16));
#678 = ORIENTED_EDGE('',*,*,#570,.F.);
#679 = ORIENTED_EDGE('',*,*,#680,.F.);
#680 = EDGE_CURVE('',#651,#571,#681,.T.);
#681 = LINE('',#682,#683);
#682 = CARTESIAN_POINT('',(-1.712079367167E-16,-2.563502,2.042104));
#683 = VECTOR('',#684,1.);
#684 = DIRECTION('',(8.628166150855E-32,-1.,1.110223024625E-16));
#685 = PLANE('',#686);
#686 = AXIS2_PLACEMENT_3D('',#687,#688,#689);
#687 = CARTESIAN_POINT('',(-1.133211302573E-16,-2.563502,2.042104));
#688 = DIRECTION('',(2.775557561563E-16,-2.22044604925E-16,-1.));
#689 = DIRECTION('',(1.110223024625E-16,-1.,2.22044604925E-16));
#690 = ADVANCED_FACE('',(#691),#697,.F.);
#691 = FACE_BOUND('',#692,.F.);
#692 = EDGE_LOOP('',(#693,#694,#695,#696));
#693 = ORIENTED_EDGE('',*,*,#596,.T.);
#694 = ORIENTED_EDGE('',*,*,#627,.T.);
#695 = ORIENTED_EDGE('',*,*,#658,.T.);
#696 = ORIENTED_EDGE('',*,*,#680,.T.);
#697 = PLANE('',#698);
#698 = AXIS2_PLACEMENT_3D('',#699,#700,#701);
#699 = CARTESIAN_POINT('',(-3.330669073875E-16,-2.913502,1.867104));
#700 = DIRECTION('',(1.,3.330669073875E-16,2.22044604925E-16));
#701 = DIRECTION('',(1.110223024625E-16,2.22044604925E-16,1.));
#702 = ADVANCED_FACE('',(#703),#709,.T.);
#703 = FACE_BOUND('',#704,.T.);
#704 = EDGE_LOOP('',(#705,#706,#707,#708));
#705 = ORIENTED_EDGE('',*,*,#580,.T.);
#706 = ORIENTED_EDGE('',*,*,#611,.T.);
#707 = ORIENTED_EDGE('',*,*,#642,.T.);
#708 = ORIENTED_EDGE('',*,*,#673,.T.);
#709 = PLANE('',#710);
#710 = AXIS2_PLACEMENT_3D('',#711,#712,#713);
#711 = CARTESIAN_POINT('',(11.,-2.913502,1.867104));
#712 = DIRECTION('',(1.,3.330669073875E-16,2.22044604925E-16));
#713 = DIRECTION('',(1.110223024625E-16,2.22044604925E-16,1.));
#714 = ( GEOMETRIC_REPRESENTATION_CONTEXT(3) 
GLOBAL_UNCERTAINTY_ASSIGNED_CONTEXT((#718)) GLOBAL_UNIT_ASSIGNED_CONTEXT
((#715,#716,#717)) REPRESENTATION_CONTEXT('Context #1',
  '3D Context with UNIT and UNCERTAINTY') );
#715 = ( LENGTH_UNIT() NAMED_UNIT(*) SI_UNIT(.MILLI.,.METRE.) );
#716 = ( NAMED_UNIT(*) PLANE_ANGLE_UNIT() SI_UNIT($,.RADIAN.) );
#717 = ( NAMED_UNIT(*) SI_UNIT($,.STERADIAN.) SOLID_ANGLE_UNIT() );
#718 = UNCERTAINTY_MEASURE_WITH_UNIT(LENGTH_MEASURE(1.E-07),#715,
  'distance_accuracy_value','confusion accuracy');
#719 = CONTEXT_DEPENDENT_SHAPE_REPRESENTATION(#720,#722);
#720 = ( REPRESENTATION_RELATIONSHIP('','',#563,#10) 
REPRESENTATION_RELATIONSHIP_WITH_TRANSFORMATION(#721) 
SHAPE_REPRESENTATION_RELATIONSHIP() );
#721 = ITEM_DEFINED_TRANSFORMATION('','',#11,#27);
#722 = PRODUCT_DEFINITION_SHAPE('Placement','Placement of an item',#723
  );
#723 = NEXT_ASSEMBLY_USAGE_OCCURRENCE('4','Тіло005','',#5,#558,$);
#724 = PRODUCT_RELATED_PRODUCT_CATEGORY('part',$,(#560));
#725 = SHAPE_DEFINITION_REPRESENTATION(#726,#732);
#726 = PRODUCT_DEFINITION_SHAPE('','',#727);
#727 = PRODUCT_DEFINITION('design','',#728,#731);
#728 = PRODUCT_DEFINITION_FORMATION('','',#729);
#729 = PRODUCT('Body006','Body006','',(#730));
#730 = PRODUCT_CONTEXT('',#2,'mechanical');
#731 = PRODUCT_DEFINITION_CONTEXT('part definition',#2,'design');
#732 = ADVANCED_BREP_SHAPE_REPRESENTATION('',(#11,#733),#883);
#733 = MANIFOLD_SOLID_BREP('',#734);
#734 = CLOSED_SHELL('',(#735,#775,#806,#837,#859,#871));
#735 = ADVANCED_FACE('',(#736),#770,.F.);
#736 = FACE_BOUND('',#737,.F.);
#737 = EDGE_LOOP('',(#738,#748,#756,#764));
#738 = ORIENTED_EDGE('',*,*,#739,.T.);
#739 = EDGE_CURVE('',#740,#742,#744,.T.);
#740 = VERTEX_POINT('',#741);
#741 = CARTESIAN_POINT('',(3.,2.236498,1.742104));
#742 = VERTEX_POINT('',#743);
#743 = CARTESIAN_POINT('',(14.,2.236498,1.742104));
#744 = LINE('',#745,#746);
#745 = CARTESIAN_POINT('',(3.,2.236498,1.742104));
#746 = VECTOR('',#747,1.);
#747 = DIRECTION('',(1.,1.110223024625E-16,2.775557561563E-16));
#748 = ORIENTED_EDGE('',*,*,#749,.T.);
#749 = EDGE_CURVE('',#742,#750,#752,.T.);
#750 = VERTEX_POINT('',#751);
#751 = CARTESIAN_POINT('',(14.,2.236498,1.392104));
#752 = LINE('',#753,#754);
#753 = CARTESIAN_POINT('',(14.,2.236498,1.742104));
#754 = VECTOR('',#755,1.);
#755 = DIRECTION('',(-1.972152263053E-31,-5.551115123126E-16,-1.));
#756 = ORIENTED_EDGE('',*,*,#757,.F.);
#757 = EDGE_CURVE('',#758,#750,#760,.T.);
#758 = VERTEX_POINT('',#759);
#759 = CARTESIAN_POINT('',(3.,2.236498,1.392104));
#760 = LINE('',#761,#762);
#761 = CARTESIAN_POINT('',(3.,2.236498,1.392104));
#762 = VECTOR('',#763,1.);
#763 = DIRECTION('',(1.,1.110223024625E-16,2.775557561563E-16));
#764 = ORIENTED_EDGE('',*,*,#765,.F.);
#765 = EDGE_CURVE('',#740,#758,#766,.T.);
#766 = LINE('',#767,#768);
#767 = CARTESIAN_POINT('',(3.,2.236498,1.742104));
#768 = VECTOR('',#769,1.);
#769 = DIRECTION('',(-1.972152263053E-31,-5.551115123126E-16,-1.));
#770 = PLANE('',#771);
#771 = AXIS2_PLACEMENT_3D('',#772,#773,#774);
#772 = CARTESIAN_POINT('',(3.,2.236498,1.742104));
#773 = DIRECTION('',(-1.110223024625E-16,1.,-3.330669073875E-16));
#774 = DIRECTION('',(2.22044604925E-16,-3.330669073875E-16,-1.));
#775 = ADVANCED_FACE('',(#776),#801,.F.);
#776 = FACE_BOUND('',#777,.F.);
#777 = EDGE_LOOP('',(#778,#779,#787,#795));
#778 = ORIENTED_EDGE('',*,*,#757,.T.);
#779 = ORIENTED_EDGE('',*,*,#780,.T.);
#780 = EDGE_CURVE('',#750,#781,#783,.T.);
#781 = VERTEX_POINT('',#782);
#782 = CARTESIAN_POINT('',(14.,2.936498,1.392104));
#783 = LINE('',#784,#785);
#784 = CARTESIAN_POINT('',(14.,2.236498,1.392104));
#785 = VECTOR('',#786,1.);
#786 = DIRECTION('',(1.110223024625E-16,1.,6.162975822039E-32));
#787 = ORIENTED_EDGE('',*,*,#788,.F.);
#788 = EDGE_CURVE('',#789,#781,#791,.T.);
#789 = VERTEX_POINT('',#790);
#790 = CARTESIAN_POINT('',(3.,2.936498,1.392104));
#791 = LINE('',#792,#793);
#792 = CARTESIAN_POINT('',(3.,2.936498,1.392104));
#793 = VECTOR('',#794,1.);
#794 = DIRECTION('',(1.,1.110223024625E-16,2.775557561563E-16));
#795 = ORIENTED_EDGE('',*,*,#796,.F.);
#796 = EDGE_CURVE('',#758,#789,#797,.T.);
#797 = LINE('',#798,#799);
#798 = CARTESIAN_POINT('',(3.,2.236498,1.392104));
#799 = VECTOR('',#800,1.);
#800 = DIRECTION('',(1.110223024625E-16,1.,6.162975822039E-32));
#801 = PLANE('',#802);
#802 = AXIS2_PLACEMENT_3D('',#803,#804,#805);
#803 = CARTESIAN_POINT('',(3.,2.236498,1.392104));
#804 = DIRECTION('',(-2.775557561563E-16,2.22044604925E-16,1.));
#805 = DIRECTION('',(-1.110223024625E-16,1.,-2.22044604925E-16));
#806 = ADVANCED_FACE('',(#807),#832,.F.);
#807 = FACE_BOUND('',#808,.F.);
#808 = EDGE_LOOP('',(#809,#810,#818,#826));
#809 = ORIENTED_EDGE('',*,*,#788,.T.);
#810 = ORIENTED_EDGE('',*,*,#811,.T.);
#811 = EDGE_CURVE('',#781,#812,#814,.T.);
#812 = VERTEX_POINT('',#813);
#813 = CARTESIAN_POINT('',(14.,2.936498,1.742104));
#814 = LINE('',#815,#816);
#815 = CARTESIAN_POINT('',(14.,2.936498,1.392104));
#816 = VECTOR('',#817,1.);
#817 = DIRECTION('',(1.972152263053E-31,5.551115123126E-16,1.));
#818 = ORIENTED_EDGE('',*,*,#819,.F.);
#819 = EDGE_CURVE('',#820,#812,#822,.T.);
#820 = VERTEX_POINT('',#821);
#821 = CARTESIAN_POINT('',(3.,2.936498,1.742104));
#822 = LINE('',#823,#824);
#823 = CARTESIAN_POINT('',(3.,2.936498,1.742104));
#824 = VECTOR('',#825,1.);
#825 = DIRECTION('',(1.,1.110223024625E-16,2.775557561563E-16));
#826 = ORIENTED_EDGE('',*,*,#827,.F.);
#827 = EDGE_CURVE('',#789,#820,#828,.T.);
#828 = LINE('',#829,#830);
#829 = CARTESIAN_POINT('',(3.,2.936498,1.392104));
#830 = VECTOR('',#831,1.);
#831 = DIRECTION('',(1.972152263053E-31,5.551115123126E-16,1.));
#832 = PLANE('',#833);
#833 = AXIS2_PLACEMENT_3D('',#834,#835,#836);
#834 = CARTESIAN_POINT('',(3.,2.936498,1.392104));
#835 = DIRECTION('',(1.110223024625E-16,-1.,3.330669073875E-16));
#836 = DIRECTION('',(-2.22044604925E-16,3.330669073875E-16,1.));
#837 = ADVANCED_FACE('',(#838),#854,.F.);
#838 = FACE_BOUND('',#839,.F.);
#839 = EDGE_LOOP('',(#840,#841,#847,#848));
#840 = ORIENTED_EDGE('',*,*,#819,.T.);
#841 = ORIENTED_EDGE('',*,*,#842,.T.);
#842 = EDGE_CURVE('',#812,#742,#843,.T.);
#843 = LINE('',#844,#845);
#844 = CARTESIAN_POINT('',(14.,2.936498,1.742104));
#845 = VECTOR('',#846,1.);
#846 = DIRECTION('',(-1.110223024625E-16,-1.,-6.162975822039E-32));
#847 = ORIENTED_EDGE('',*,*,#739,.F.);
#848 = ORIENTED_EDGE('',*,*,#849,.F.);
#849 = EDGE_CURVE('',#820,#740,#850,.T.);
#850 = LINE('',#851,#852);
#851 = CARTESIAN_POINT('',(3.,2.936498,1.742104));
#852 = VECTOR('',#853,1.);
#853 = DIRECTION('',(-1.110223024625E-16,-1.,-6.162975822039E-32));
#854 = PLANE('',#855);
#855 = AXIS2_PLACEMENT_3D('',#856,#857,#858);
#856 = CARTESIAN_POINT('',(3.,2.936498,1.742104));
#857 = DIRECTION('',(2.775557561563E-16,-2.22044604925E-16,-1.));
#858 = DIRECTION('',(1.110223024625E-16,-1.,2.22044604925E-16));
#859 = ADVANCED_FACE('',(#860),#866,.F.);
#860 = FACE_BOUND('',#861,.F.);
#861 = EDGE_LOOP('',(#862,#863,#864,#865));
#862 = ORIENTED_EDGE('',*,*,#765,.T.);
#863 = ORIENTED_EDGE('',*,*,#796,.T.);
#864 = ORIENTED_EDGE('',*,*,#827,.T.);
#865 = ORIENTED_EDGE('',*,*,#849,.T.);
#866 = PLANE('',#867);
#867 = AXIS2_PLACEMENT_3D('',#868,#869,#870);
#868 = CARTESIAN_POINT('',(3.,2.586498,1.567104));
#869 = DIRECTION('',(1.,4.440892098501E-16,3.330669073875E-16));
#870 = DIRECTION('',(2.22044604925E-16,3.330669073875E-16,1.));
#871 = ADVANCED_FACE('',(#872),#878,.T.);
#872 = FACE_BOUND('',#873,.T.);
#873 = EDGE_LOOP('',(#874,#875,#876,#877));
#874 = ORIENTED_EDGE('',*,*,#749,.T.);
#875 = ORIENTED_EDGE('',*,*,#780,.T.);
#876 = ORIENTED_EDGE('',*,*,#811,.T.);
#877 = ORIENTED_EDGE('',*,*,#842,.T.);
#878 = PLANE('',#879);
#879 = AXIS2_PLACEMENT_3D('',#880,#881,#882);
#880 = CARTESIAN_POINT('',(14.,2.586498,1.567104));
#881 = DIRECTION('',(1.,4.440892098501E-16,3.330669073875E-16));
#882 = DIRECTION('',(2.22044604925E-16,3.330669073875E-16,1.));
#883 = ( GEOMETRIC_REPRESENTATION_CONTEXT(3) 
GLOBAL_UNCERTAINTY_ASSIGNED_CONTEXT((#887)) GLOBAL_UNIT_ASSIGNED_CONTEXT
((#884,#885,#886)) REPRESENTATION_CONTEXT('Context #1',
  '3D Context with UNIT and UNCERTAINTY') );
#884 = ( LENGTH_UNIT() NAMED_UNIT(*) SI_UNIT(.MILLI.,.METRE.) );
#885 = ( NAMED_UNIT(*) PLANE_ANGLE_UNIT() SI_UNIT($,.RADIAN.) );
#886 = ( NAMED_UNIT(*) SI_UNIT($,.STERADIAN.) SOLID_ANGLE_UNIT() );
#887 = UNCERTAINTY_MEASURE_WITH_UNIT(LENGTH_MEASURE(1.E-07),#884,
  'distance_accuracy_value','confusion accuracy');
#888 = CONTEXT_DEPENDENT_SHAPE_REPRESENTATION(#889,#891);
#889 = ( REPRESENTATION_RELATIONSHIP('','',#732,#10) 
REPRESENTATION_RELATIONSHIP_WITH_TRANSFORMATION(#890) 
SHAPE_REPRESENTATION_RELATIONSHIP() );
#890 = ITEM_DEFINED_TRANSFORMATION('','',#11,#31);
#891 = PRODUCT_DEFINITION_SHAPE('Placement','Placement of an item',#892
  );
#892 = NEXT_ASSEMBLY_USAGE_OCCURRENCE('5','Body006','',#5,#727,$);
#893 = PRODUCT_RELATED_PRODUCT_CATEGORY('part',$,(#729));
#894 = SHAPE_DEFINITION_REPRESENTATION(#895,#901);
#895 = PRODUCT_DEFINITION_SHAPE('','',#896);
#896 = PRODUCT_DEFINITION('design','',#897,#900);
#897 = PRODUCT_DEFINITION_FORMATION('','',#898);
#898 = PRODUCT('Body007','Body007','',(#899));
#899 = PRODUCT_CONTEXT('',#2,'mechanical');
#900 = PRODUCT_DEFINITION_CONTEXT('part definition',#2,'design');
#901 = ADVANCED_BREP_SHAPE_REPRESENTATION('',(#11,#902),#1052);
#902 = MANIFOLD_SOLID_BREP('',#903);
#903 = CLOSED_SHELL('',(#904,#944,#975,#1006,#1028,#1040));
#904 = ADVANCED_FACE('',(#905),#939,.F.);
#905 = FACE_BOUND('',#906,.F.);
#906 = EDGE_LOOP('',(#907,#917,#925,#933));
#907 = ORIENTED_EDGE('',*,*,#908,.T.);
#908 = EDGE_CURVE('',#909,#911,#913,.T.);
#909 = VERTEX_POINT('',#910);
#910 = CARTESIAN_POINT('',(3.,-0.363502,1.742104));
#911 = VERTEX_POINT('',#912);
#912 = CARTESIAN_POINT('',(14.,-0.363502,1.742104));
#913 = LINE('',#914,#915);
#914 = CARTESIAN_POINT('',(3.,-0.363502,1.742104));
#915 = VECTOR('',#916,1.);
#916 = DIRECTION('',(1.,1.110223024625E-16,2.775557561563E-16));
#917 = ORIENTED_EDGE('',*,*,#918,.T.);
#918 = EDGE_CURVE('',#911,#919,#921,.T.);
#919 = VERTEX_POINT('',#920);
#920 = CARTESIAN_POINT('',(14.,-0.363502,1.392104));
#921 = LINE('',#922,#923);
#922 = CARTESIAN_POINT('',(14.,-0.363502,1.742104));
#923 = VECTOR('',#924,1.);
#924 = DIRECTION('',(-1.972152263053E-31,-5.551115123126E-16,-1.));
#925 = ORIENTED_EDGE('',*,*,#926,.F.);
#926 = EDGE_CURVE('',#927,#919,#929,.T.);
#927 = VERTEX_POINT('',#928);
#928 = CARTESIAN_POINT('',(3.,-0.363502,1.392104));
#929 = LINE('',#930,#931);
#930 = CARTESIAN_POINT('',(3.,-0.363502,1.392104));
#931 = VECTOR('',#932,1.);
#932 = DIRECTION('',(1.,1.110223024625E-16,2.775557561563E-16));
#933 = ORIENTED_EDGE('',*,*,#934,.F.);
#934 = EDGE_CURVE('',#909,#927,#935,.T.);
#935 = LINE('',#936,#937);
#936 = CARTESIAN_POINT('',(3.,-0.363502,1.742104));
#937 = VECTOR('',#938,1.);
#938 = DIRECTION('',(-1.972152263053E-31,-5.551115123126E-16,-1.));
#939 = PLANE('',#940);
#940 = AXIS2_PLACEMENT_3D('',#941,#942,#943);
#941 = CARTESIAN_POINT('',(3.,-0.363502,1.742104));
#942 = DIRECTION('',(-1.110223024625E-16,1.,-3.330669073875E-16));
#943 = DIRECTION('',(2.22044604925E-16,-3.330669073875E-16,-1.));
#944 = ADVANCED_FACE('',(#945),#970,.F.);
#945 = FACE_BOUND('',#946,.F.);
#946 = EDGE_LOOP('',(#947,#948,#956,#964));
#947 = ORIENTED_EDGE('',*,*,#926,.T.);
#948 = ORIENTED_EDGE('',*,*,#949,.T.);
#949 = EDGE_CURVE('',#919,#950,#952,.T.);
#950 = VERTEX_POINT('',#951);
#951 = CARTESIAN_POINT('',(14.,0.336498,1.392104));
#952 = LINE('',#953,#954);
#953 = CARTESIAN_POINT('',(14.,-0.363502,1.392104));
#954 = VECTOR('',#955,1.);
#955 = DIRECTION('',(1.110223024625E-16,1.,6.162975822039E-32));
#956 = ORIENTED_EDGE('',*,*,#957,.F.);
#957 = EDGE_CURVE('',#958,#950,#960,.T.);
#958 = VERTEX_POINT('',#959);
#959 = CARTESIAN_POINT('',(3.,0.336498,1.392104));
#960 = LINE('',#961,#962);
#961 = CARTESIAN_POINT('',(3.,0.336498,1.392104));
#962 = VECTOR('',#963,1.);
#963 = DIRECTION('',(1.,1.110223024625E-16,2.775557561563E-16));
#964 = ORIENTED_EDGE('',*,*,#965,.F.);
#965 = EDGE_CURVE('',#927,#958,#966,.T.);
#966 = LINE('',#967,#968);
#967 = CARTESIAN_POINT('',(3.,-0.363502,1.392104));
#968 = VECTOR('',#969,1.);
#969 = DIRECTION('',(1.110223024625E-16,1.,6.162975822039E-32));
#970 = PLANE('',#971);
#971 = AXIS2_PLACEMENT_3D('',#972,#973,#974);
#972 = CARTESIAN_POINT('',(3.,-0.363502,1.392104));
#973 = DIRECTION('',(-2.775557561563E-16,2.22044604925E-16,1.));
#974 = DIRECTION('',(-1.110223024625E-16,1.,-2.22044604925E-16));
#975 = ADVANCED_FACE('',(#976),#1001,.F.);
#976 = FACE_BOUND('',#977,.F.);
#977 = EDGE_LOOP('',(#978,#979,#987,#995));
#978 = ORIENTED_EDGE('',*,*,#957,.T.);
#979 = ORIENTED_EDGE('',*,*,#980,.T.);
#980 = EDGE_CURVE('',#950,#981,#983,.T.);
#981 = VERTEX_POINT('',#982);
#982 = CARTESIAN_POINT('',(14.,0.336498,1.742104));
#983 = LINE('',#984,#985);
#984 = CARTESIAN_POINT('',(14.,0.336498,1.392104));
#985 = VECTOR('',#986,1.);
#986 = DIRECTION('',(1.972152263053E-31,5.551115123126E-16,1.));
#987 = ORIENTED_EDGE('',*,*,#988,.F.);
#988 = EDGE_CURVE('',#989,#981,#991,.T.);
#989 = VERTEX_POINT('',#990);
#990 = CARTESIAN_POINT('',(3.,0.336498,1.742104));
#991 = LINE('',#992,#993);
#992 = CARTESIAN_POINT('',(3.,0.336498,1.742104));
#993 = VECTOR('',#994,1.);
#994 = DIRECTION('',(1.,1.110223024625E-16,2.775557561563E-16));
#995 = ORIENTED_EDGE('',*,*,#996,.F.);
#996 = EDGE_CURVE('',#958,#989,#997,.T.);
#997 = LINE('',#998,#999);
#998 = CARTESIAN_POINT('',(3.,0.336498,1.392104));
#999 = VECTOR('',#1000,1.);
#1000 = DIRECTION('',(1.972152263053E-31,5.551115123126E-16,1.));
#1001 = PLANE('',#1002);
#1002 = AXIS2_PLACEMENT_3D('',#1003,#1004,#1005);
#1003 = CARTESIAN_POINT('',(3.,0.336498,1.392104));
#1004 = DIRECTION('',(1.110223024625E-16,-1.,3.330669073875E-16));
#1005 = DIRECTION('',(-2.22044604925E-16,3.330669073875E-16,1.));
#1006 = ADVANCED_FACE('',(#1007),#1023,.F.);
#1007 = FACE_BOUND('',#1008,.F.);
#1008 = EDGE_LOOP('',(#1009,#1010,#1016,#1017));
#1009 = ORIENTED_EDGE('',*,*,#988,.T.);
#1010 = ORIENTED_EDGE('',*,*,#1011,.T.);
#1011 = EDGE_CURVE('',#981,#911,#1012,.T.);
#1012 = LINE('',#1013,#1014);
#1013 = CARTESIAN_POINT('',(14.,0.336498,1.742104));
#1014 = VECTOR('',#1015,1.);
#1015 = DIRECTION('',(-1.110223024625E-16,-1.,-6.162975822039E-32));
#1016 = ORIENTED_EDGE('',*,*,#908,.F.);
#1017 = ORIENTED_EDGE('',*,*,#1018,.F.);
#1018 = EDGE_CURVE('',#989,#909,#1019,.T.);
#1019 = LINE('',#1020,#1021);
#1020 = CARTESIAN_POINT('',(3.,0.336498,1.742104));
#1021 = VECTOR('',#1022,1.);
#1022 = DIRECTION('',(-1.110223024625E-16,-1.,-6.162975822039E-32));
#1023 = PLANE('',#1024);
#1024 = AXIS2_PLACEMENT_3D('',#1025,#1026,#1027);
#1025 = CARTESIAN_POINT('',(3.,0.336498,1.742104));
#1026 = DIRECTION('',(2.775557561563E-16,-2.22044604925E-16,-1.));
#1027 = DIRECTION('',(1.110223024625E-16,-1.,2.22044604925E-16));
#1028 = ADVANCED_FACE('',(#1029),#1035,.F.);
#1029 = FACE_BOUND('',#1030,.F.);
#1030 = EDGE_LOOP('',(#1031,#1032,#1033,#1034));
#1031 = ORIENTED_EDGE('',*,*,#934,.T.);
#1032 = ORIENTED_EDGE('',*,*,#965,.T.);
#1033 = ORIENTED_EDGE('',*,*,#996,.T.);
#1034 = ORIENTED_EDGE('',*,*,#1018,.T.);
#1035 = PLANE('',#1036);
#1036 = AXIS2_PLACEMENT_3D('',#1037,#1038,#1039);
#1037 = CARTESIAN_POINT('',(3.,-1.3502E-02,1.567104));
#1038 = DIRECTION('',(1.,4.440892098501E-16,3.330669073875E-16));
#1039 = DIRECTION('',(2.22044604925E-16,3.330669073875E-16,1.));
#1040 = ADVANCED_FACE('',(#1041),#1047,.T.);
#1041 = FACE_BOUND('',#1042,.T.);
#1042 = EDGE_LOOP('',(#1043,#1044,#1045,#1046));
#1043 = ORIENTED_EDGE('',*,*,#918,.T.);
#1044 = ORIENTED_EDGE('',*,*,#949,.T.);
#1045 = ORIENTED_EDGE('',*,*,#980,.T.);
#1046 = ORIENTED_EDGE('',*,*,#1011,.T.);
#1047 = PLANE('',#1048);
#1048 = AXIS2_PLACEMENT_3D('',#1049,#1050,#1051);
#1049 = CARTESIAN_POINT('',(14.,-1.3502E-02,1.567104));
#1050 = DIRECTION('',(1.,4.440892098501E-16,3.330669073875E-16));
#1051 = DIRECTION('',(2.22044604925E-16,3.330669073875E-16,1.));
#1052 = ( GEOMETRIC_REPRESENTATION_CONTEXT(3) 
GLOBAL_UNCERTAINTY_ASSIGNED_CONTEXT((#1056)) 
GLOBAL_UNIT_ASSIGNED_CONTEXT((#1053,#1054,#1055)) REPRESENTATION_CONTEXT
('Context #1','3D Context with UNIT and UNCERTAINTY') );
#1053 = ( LENGTH_UNIT() NAMED_UNIT(*) SI_UNIT(.MILLI.,.METRE.) );
#1054 = ( NAMED_UNIT(*) PLANE_ANGLE_UNIT() SI_UNIT($,.RADIAN.) );
#1055 = ( NAMED_UNIT(*) SI_UNIT($,.STERADIAN.) SOLID_ANGLE_UNIT() );
#1056 = UNCERTAINTY_MEASURE_WITH_UNIT(LENGTH_MEASURE(1.E-07),#1053,
  'distance_accuracy_value','confusion accuracy');
#1057 = CONTEXT_DEPENDENT_SHAPE_REPRESENTATION(#1058,#1060);
#1058 = ( REPRESENTATION_RELATIONSHIP('','',#901,#10) 
REPRESENTATION_RELATIONSHIP_WITH_TRANSFORMATION(#1059) 
SHAPE_REPRESENTATION_RELATIONSHIP() );
#1059 = ITEM_DEFINED_TRANSFORMATION('','',#11,#35);
#1060 = PRODUCT_DEFINITION_SHAPE('Placement','Placement of an item',
  #1061);
#1061 = NEXT_ASSEMBLY_USAGE_OCCURRENCE('6','Body007','',#5,#896,$);
#1062 = PRODUCT_RELATED_PRODUCT_CATEGORY('part',$,(#898));
#1063 = SHAPE_DEFINITION_REPRESENTATION(#1064,#1070);
#1064 = PRODUCT_DEFINITION_SHAPE('','',#1065);
#1065 = PRODUCT_DEFINITION('design','',#1066,#1069);
#1066 = PRODUCT_DEFINITION_FORMATION('','',#1067);
#1067 = PRODUCT('Body','Body','',(#1068));
#1068 = PRODUCT_CONTEXT('',#2,'mechanical');
#1069 = PRODUCT_DEFINITION_CONTEXT('part definition',#2,'design');
#1070 = ADVANCED_BREP_SHAPE_REPRESENTATION('',(#11,#1071),#1221);
#1071 = MANIFOLD_SOLID_BREP('',#1072);
#1072 = CLOSED_SHELL('',(#1073,#1113,#1144,#1175,#1197,#1209));
#1073 = ADVANCED_FACE('',(#1074),#1108,.F.);
#1074 = FACE_BOUND('',#1075,.F.);
#1075 = EDGE_LOOP('',(#1076,#1086,#1094,#1102));
#1076 = ORIENTED_EDGE('',*,*,#1077,.T.);
#1077 = EDGE_CURVE('',#1078,#1080,#1082,.T.);
#1078 = VERTEX_POINT('',#1079);
#1079 = CARTESIAN_POINT('',(3.,-2.963502,1.742104));
#1080 = VERTEX_POINT('',#1081);
#1081 = CARTESIAN_POINT('',(14.,-2.963502,1.742104));
#1082 = LINE('',#1083,#1084);
#1083 = CARTESIAN_POINT('',(3.,-2.963502,1.742104));
#1084 = VECTOR('',#1085,1.);
#1085 = DIRECTION('',(1.,1.110223024625E-16,2.775557561563E-16));
#1086 = ORIENTED_EDGE('',*,*,#1087,.T.);
#1087 = EDGE_CURVE('',#1080,#1088,#1090,.T.);
#1088 = VERTEX_POINT('',#1089);
#1089 = CARTESIAN_POINT('',(14.,-2.963502,1.392104));
#1090 = LINE('',#1091,#1092);
#1091 = CARTESIAN_POINT('',(14.,-2.963502,1.742104));
#1092 = VECTOR('',#1093,1.);
#1093 = DIRECTION('',(-1.972152263053E-31,-5.551115123126E-16,-1.));
#1094 = ORIENTED_EDGE('',*,*,#1095,.F.);
#1095 = EDGE_CURVE('',#1096,#1088,#1098,.T.);
#1096 = VERTEX_POINT('',#1097);
#1097 = CARTESIAN_POINT('',(3.,-2.963502,1.392104));
#1098 = LINE('',#1099,#1100);
#1099 = CARTESIAN_POINT('',(3.,-2.963502,1.392104));
#1100 = VECTOR('',#1101,1.);
#1101 = DIRECTION('',(1.,1.110223024625E-16,2.775557561563E-16));
#1102 = ORIENTED_EDGE('',*,*,#1103,.F.);
#1103 = EDGE_CURVE('',#1078,#1096,#1104,.T.);
#1104 = LINE('',#1105,#1106);
#1105 = CARTESIAN_POINT('',(3.,-2.963502,1.742104));
#1106 = VECTOR('',#1107,1.);
#1107 = DIRECTION('',(-1.972152263053E-31,-5.551115123126E-16,-1.));
#1108 = PLANE('',#1109);
#1109 = AXIS2_PLACEMENT_3D('',#1110,#1111,#1112);
#1110 = CARTESIAN_POINT('',(3.,-2.963502,1.742104));
#1111 = DIRECTION('',(-1.110223024625E-16,1.,-3.330669073875E-16));
#1112 = DIRECTION('',(2.22044604925E-16,-3.330669073875E-16,-1.));
#1113 = ADVANCED_FACE('',(#1114),#1139,.F.);
#1114 = FACE_BOUND('',#1115,.F.);
#1115 = EDGE_LOOP('',(#1116,#1117,#1125,#1133));
#1116 = ORIENTED_EDGE('',*,*,#1095,.T.);
#1117 = ORIENTED_EDGE('',*,*,#1118,.T.);
#1118 = EDGE_CURVE('',#1088,#1119,#1121,.T.);
#1119 = VERTEX_POINT('',#1120);
#1120 = CARTESIAN_POINT('',(14.,-2.263502,1.392104));
#1121 = LINE('',#1122,#1123);
#1122 = CARTESIAN_POINT('',(14.,-2.963502,1.392104));
#1123 = VECTOR('',#1124,1.);
#1124 = DIRECTION('',(1.110223024625E-16,1.,6.162975822039E-32));
#1125 = ORIENTED_EDGE('',*,*,#1126,.F.);
#1126 = EDGE_CURVE('',#1127,#1119,#1129,.T.);
#1127 = VERTEX_POINT('',#1128);
#1128 = CARTESIAN_POINT('',(3.,-2.263502,1.392104));
#1129 = LINE('',#1130,#1131);
#1130 = CARTESIAN_POINT('',(3.,-2.263502,1.392104));
#1131 = VECTOR('',#1132,1.);
#1132 = DIRECTION('',(1.,1.110223024625E-16,2.775557561563E-16));
#1133 = ORIENTED_EDGE('',*,*,#1134,.F.);
#1134 = EDGE_CURVE('',#1096,#1127,#1135,.T.);
#1135 = LINE('',#1136,#1137);
#1136 = CARTESIAN_POINT('',(3.,-2.963502,1.392104));
#1137 = VECTOR('',#1138,1.);
#1138 = DIRECTION('',(1.110223024625E-16,1.,6.162975822039E-32));
#1139 = PLANE('',#1140);
#1140 = AXIS2_PLACEMENT_3D('',#1141,#1142,#1143);
#1141 = CARTESIAN_POINT('',(3.,-2.963502,1.392104));
#1142 = DIRECTION('',(-2.775557561563E-16,2.22044604925E-16,1.));
#1143 = DIRECTION('',(-1.110223024625E-16,1.,-2.22044604925E-16));
#1144 = ADVANCED_FACE('',(#1145),#1170,.F.);
#1145 = FACE_BOUND('',#1146,.F.);
#1146 = EDGE_LOOP('',(#1147,#1148,#1156,#1164));
#1147 = ORIENTED_EDGE('',*,*,#1126,.T.);
#1148 = ORIENTED_EDGE('',*,*,#1149,.T.);
#1149 = EDGE_CURVE('',#1119,#1150,#1152,.T.);
#1150 = VERTEX_POINT('',#1151);
#1151 = CARTESIAN_POINT('',(14.,-2.263502,1.742104));
#1152 = LINE('',#1153,#1154);
#1153 = CARTESIAN_POINT('',(14.,-2.263502,1.392104));
#1154 = VECTOR('',#1155,1.);
#1155 = DIRECTION('',(1.972152263053E-31,5.551115123126E-16,1.));
#1156 = ORIENTED_EDGE('',*,*,#1157,.F.);
#1157 = EDGE_CURVE('',#1158,#1150,#1160,.T.);
#1158 = VERTEX_POINT('',#1159);
#1159 = CARTESIAN_POINT('',(3.,-2.263502,1.742104));
#1160 = LINE('',#1161,#1162);
#1161 = CARTESIAN_POINT('',(3.,-2.263502,1.742104));
#1162 = VECTOR('',#1163,1.);
#1163 = DIRECTION('',(1.,1.110223024625E-16,2.775557561563E-16));
#1164 = ORIENTED_EDGE('',*,*,#1165,.F.);
#1165 = EDGE_CURVE('',#1127,#1158,#1166,.T.);
#1166 = LINE('',#1167,#1168);
#1167 = CARTESIAN_POINT('',(3.,-2.263502,1.392104));
#1168 = VECTOR('',#1169,1.);
#1169 = DIRECTION('',(1.972152263053E-31,5.551115123126E-16,1.));
#1170 = PLANE('',#1171);
#1171 = AXIS2_PLACEMENT_3D('',#1172,#1173,#1174);
#1172 = CARTESIAN_POINT('',(3.,-2.263502,1.392104));
#1173 = DIRECTION('',(1.110223024625E-16,-1.,3.330669073875E-16));
#1174 = DIRECTION('',(-2.22044604925E-16,3.330669073875E-16,1.));
#1175 = ADVANCED_FACE('',(#1176),#1192,.F.);
#1176 = FACE_BOUND('',#1177,.F.);
#1177 = EDGE_LOOP('',(#1178,#1179,#1185,#1186));
#1178 = ORIENTED_EDGE('',*,*,#1157,.T.);
#1179 = ORIENTED_EDGE('',*,*,#1180,.T.);
#1180 = EDGE_CURVE('',#1150,#1080,#1181,.T.);
#1181 = LINE('',#1182,#1183);
#1182 = CARTESIAN_POINT('',(14.,-2.263502,1.742104));
#1183 = VECTOR('',#1184,1.);
#1184 = DIRECTION('',(-1.110223024625E-16,-1.,-6.162975822039E-32));
#1185 = ORIENTED_EDGE('',*,*,#1077,.F.);
#1186 = ORIENTED_EDGE('',*,*,#1187,.F.);
#1187 = EDGE_CURVE('',#1158,#1078,#1188,.T.);
#1188 = LINE('',#1189,#1190);
#1189 = CARTESIAN_POINT('',(3.,-2.263502,1.742104));
#1190 = VECTOR('',#1191,1.);
#1191 = DIRECTION('',(-1.110223024625E-16,-1.,-6.162975822039E-32));
#1192 = PLANE('',#1193);
#1193 = AXIS2_PLACEMENT_3D('',#1194,#1195,#1196);
#1194 = CARTESIAN_POINT('',(3.,-2.263502,1.742104));
#1195 = DIRECTION('',(2.775557561563E-16,-2.22044604925E-16,-1.));
#1196 = DIRECTION('',(1.110223024625E-16,-1.,2.22044604925E-16));
#1197 = ADVANCED_FACE('',(#1198),#1204,.F.);
#1198 = FACE_BOUND('',#1199,.F.);
#1199 = EDGE_LOOP('',(#1200,#1201,#1202,#1203));
#1200 = ORIENTED_EDGE('',*,*,#1103,.T.);
#1201 = ORIENTED_EDGE('',*,*,#1134,.T.);
#1202 = ORIENTED_EDGE('',*,*,#1165,.T.);
#1203 = ORIENTED_EDGE('',*,*,#1187,.T.);
#1204 = PLANE('',#1205);
#1205 = AXIS2_PLACEMENT_3D('',#1206,#1207,#1208);
#1206 = CARTESIAN_POINT('',(3.,-2.613502,1.567104));
#1207 = DIRECTION('',(1.,4.440892098501E-16,3.330669073875E-16));
#1208 = DIRECTION('',(2.22044604925E-16,3.330669073875E-16,1.));
#1209 = ADVANCED_FACE('',(#1210),#1216,.T.);
#1210 = FACE_BOUND('',#1211,.T.);
#1211 = EDGE_LOOP('',(#1212,#1213,#1214,#1215));
#1212 = ORIENTED_EDGE('',*,*,#1087,.T.);
#1213 = ORIENTED_EDGE('',*,*,#1118,.T.);
#1214 = ORIENTED_EDGE('',*,*,#1149,.T.);
#1215 = ORIENTED_EDGE('',*,*,#1180,.T.);
#1216 = PLANE('',#1217);
#1217 = AXIS2_PLACEMENT_3D('',#1218,#1219,#1220);
#1218 = CARTESIAN_POINT('',(14.,-2.613502,1.567104));
#1219 = DIRECTION('',(1.,4.440892098501E-16,3.330669073875E-16));
#1220 = DIRECTION('',(2.22044604925E-16,3.330669073875E-16,1.));
#1221 = ( GEOMETRIC_REPRESENTATION_CONTEXT(3) 
GLOBAL_UNCERTAINTY_ASSIGNED_CONTEXT((#1225)) 
GLOBAL_UNIT_ASSIGNED_CONTEXT((#1222,#1223,#1224)) REPRESENTATION_CONTEXT
('Context #1','3D Context with UNIT and UNCERTAINTY') );
#1222 = ( LENGTH_UNIT() NAMED_UNIT(*) SI_UNIT(.MILLI.,.METRE.) );
#1223 = ( NAMED_UNIT(*) PLANE_ANGLE_UNIT() SI_UNIT($,.RADIAN.) );
#1224 = ( NAMED_UNIT(*) SI_UNIT($,.STERADIAN.) SOLID_ANGLE_UNIT() );
#1225 = UNCERTAINTY_MEASURE_WITH_UNIT(LENGTH_MEASURE(1.E-07),#1222,
  'distance_accuracy_value','confusion accuracy');
#1226 = CONTEXT_DEPENDENT_SHAPE_REPRESENTATION(#1227,#1229);
#1227 = ( REPRESENTATION_RELATIONSHIP('','',#1070,#10) 
REPRESENTATION_RELATIONSHIP_WITH_TRANSFORMATION(#1228) 
SHAPE_REPRESENTATION_RELATIONSHIP() );
#1228 = ITEM_DEFINED_TRANSFORMATION('','',#11,#39);
#1229 = PRODUCT_DEFINITION_SHAPE('Placement','Placement of an item',
  #1230);
#1230 = NEXT_ASSEMBLY_USAGE_OCCURRENCE('7','Body','',#5,#1065,$);
#1231 = PRODUCT_RELATED_PRODUCT_CATEGORY('part',$,(#1067));
#1232 = MECHANICAL_DESIGN_GEOMETRIC_PRESENTATION_REPRESENTATION('',(
    #1233),#376);
#1233 = STYLED_ITEM('color',(#1234),#226);
#1234 = PRESENTATION_STYLE_ASSIGNMENT((#1235,#1241));
#1235 = SURFACE_STYLE_USAGE(.BOTH.,#1236);
#1236 = SURFACE_SIDE_STYLE('',(#1237));
#1237 = SURFACE_STYLE_FILL_AREA(#1238);
#1238 = FILL_AREA_STYLE('',(#1239));
#1239 = FILL_AREA_STYLE_COLOUR('',#1240);
#1240 = COLOUR_RGB('',0.678430976034,0.709803998361,0.741176010593);
#1241 = CURVE_STYLE('',#1242,POSITIVE_LENGTH_MEASURE(0.1),#1243);
#1242 = DRAUGHTING_PRE_DEFINED_CURVE_FONT('continuous');
#1243 = COLOUR_RGB('',9.803921802644E-02,9.803921802644E-02,
  9.803921802644E-02);
#1244 = MECHANICAL_DESIGN_GEOMETRIC_PRESENTATION_REPRESENTATION('',(
    #1245),#883);
#1245 = STYLED_ITEM('color',(#1246),#733);
#1246 = PRESENTATION_STYLE_ASSIGNMENT((#1247,#1252));
#1247 = SURFACE_STYLE_USAGE(.BOTH.,#1248);
#1248 = SURFACE_SIDE_STYLE('',(#1249));
#1249 = SURFACE_STYLE_FILL_AREA(#1250);
#1250 = FILL_AREA_STYLE('',(#1251));
#1251 = FILL_AREA_STYLE_COLOUR('',#1240);
#1252 = CURVE_STYLE('',#1253,POSITIVE_LENGTH_MEASURE(0.1),#1243);
#1253 = DRAUGHTING_PRE_DEFINED_CURVE_FONT('continuous');
#1254 = MECHANICAL_DESIGN_GEOMETRIC_PRESENTATION_REPRESENTATION('',(
    #1255),#1052);
#1255 = STYLED_ITEM('color',(#1256),#902);
#1256 = PRESENTATION_STYLE_ASSIGNMENT((#1257,#1262));
#1257 = SURFACE_STYLE_USAGE(.BOTH.,#1258);
#1258 = SURFACE_SIDE_STYLE('',(#1259));
#1259 = SURFACE_STYLE_FILL_AREA(#1260);
#1260 = FILL_AREA_STYLE('',(#1261));
#1261 = FILL_AREA_STYLE_COLOUR('',#1240);
#1262 = CURVE_STYLE('',#1263,POSITIVE_LENGTH_MEASURE(0.1),#1243);
#1263 = DRAUGHTING_PRE_DEFINED_CURVE_FONT('continuous');
#1264 = MECHANICAL_DESIGN_GEOMETRIC_PRESENTATION_REPRESENTATION('',(
    #1265),#1221);
#1265 = STYLED_ITEM('color',(#1266),#1071);
#1266 = PRESENTATION_STYLE_ASSIGNMENT((#1267,#1272));
#1267 = SURFACE_STYLE_USAGE(.BOTH.,#1268);
#1268 = SURFACE_SIDE_STYLE('',(#1269));
#1269 = SURFACE_STYLE_FILL_AREA(#1270);
#1270 = FILL_AREA_STYLE('',(#1271));
#1271 = FILL_AREA_STYLE_COLOUR('',#1240);
#1272 = CURVE_STYLE('',#1273,POSITIVE_LENGTH_MEASURE(0.1),#1243);
#1273 = DRAUGHTING_PRE_DEFINED_CURVE_FONT('continuous');
#1274 = MECHANICAL_DESIGN_GEOMETRIC_PRESENTATION_REPRESENTATION('',(
    #1275),#714);
#1275 = STYLED_ITEM('color',(#1276),#564);
#1276 = PRESENTATION_STYLE_ASSIGNMENT((#1277,#1282));
#1277 = SURFACE_STYLE_USAGE(.BOTH.,#1278);
#1278 = SURFACE_SIDE_STYLE('',(#1279));
#1279 = SURFACE_STYLE_FILL_AREA(#1280);
#1280 = FILL_AREA_STYLE('',(#1281));
#1281 = FILL_AREA_STYLE_COLOUR('',#1240);
#1282 = CURVE_STYLE('',#1283,POSITIVE_LENGTH_MEASURE(0.1),#1243);
#1283 = DRAUGHTING_PRE_DEFINED_CURVE_FONT('continuous');
#1284 = MECHANICAL_DESIGN_GEOMETRIC_PRESENTATION_REPRESENTATION('',(
    #1285),#207);
#1285 = STYLED_ITEM('color',(#1286),#57);
#1286 = PRESENTATION_STYLE_ASSIGNMENT((#1287,#1292));
#1287 = SURFACE_STYLE_USAGE(.BOTH.,#1288);
#1288 = SURFACE_SIDE_STYLE('',(#1289));
#1289 = SURFACE_STYLE_FILL_AREA(#1290);
#1290 = FILL_AREA_STYLE('',(#1291));
#1291 = FILL_AREA_STYLE_COLOUR('',#1240);
#1292 = CURVE_STYLE('',#1293,POSITIVE_LENGTH_MEASURE(0.1),#1243);
#1293 = DRAUGHTING_PRE_DEFINED_CURVE_FONT('continuous');
#1294 = MECHANICAL_DESIGN_GEOMETRIC_PRESENTATION_REPRESENTATION('',(
    #1295),#545);
#1295 = STYLED_ITEM('color',(#1296),#395);
#1296 = PRESENTATION_STYLE_ASSIGNMENT((#1297,#1302));
#1297 = SURFACE_STYLE_USAGE(.BOTH.,#1298);
#1298 = SURFACE_SIDE_STYLE('',(#1299));
#1299 = SURFACE_STYLE_FILL_AREA(#1300);
#1300 = FILL_AREA_STYLE('',(#1301));
#1301 = FILL_AREA_STYLE_COLOUR('',#1240);
#1302 = CURVE_STYLE('',#1303,POSITIVE_LENGTH_MEASURE(0.1),#1243);
#1303 = DRAUGHTING_PRE_DEFINED_CURVE_FONT('continuous');
ENDSEC;
END-ISO-10303-21;
