ISO-10303-21;
HEADER;
FILE_DESCRIPTION(('FreeCAD Model'),'2;1');
FILE_NAME('Open CASCADE Shape Model','2025-12-18T09:23:54',(''),(''),
  'Open CASCADE STEP processor 7.8','FreeCAD','Unknown');
FILE_SCHEMA(('AUTOMOTIVE_DESIGN { 1 0 10303 214 1 1 1 1 }'));
ENDSEC;
DATA;
#1 = APPLICATION_PROTOCOL_DEFINITION('international standard',
  'automotive_design',2000,#2);
#2 = APPLICATION_CONTEXT(
  'core data for automotive mechanical design processes');
#3 = SHAPE_DEFINITION_REPRESENTATION(#4,#10);
#4 = PRODUCT_DEFINITION_SHAPE('','',#5);
#5 = PRODUCT_DEFINITION('design','',#6,#9);
#6 = PRODUCT_DEFINITION_FORMATION('','',#7);
#7 = PRODUCT('Unnamed1','Unnamed1','',(#8));
#8 = PRODUCT_CONTEXT('',#2,'mechanical');
#9 = PRODUCT_DEFINITION_CONTEXT('part definition',#2,'design');
#10 = SHAPE_REPRESENTATION('',(#11,#15,#19),#23);
#11 = AXIS2_PLACEMENT_3D('',#12,#13,#14);
#12 = CARTESIAN_POINT('',(0.,0.,0.));
#13 = DIRECTION('',(0.,0.,1.));
#14 = DIRECTION('',(1.,0.,-0.));
#15 = AXIS2_PLACEMENT_3D('',#16,#17,#18);
#16 = CARTESIAN_POINT('',(0.,0.,0.));
#17 = DIRECTION('',(0.,0.,1.));
#18 = DIRECTION('',(1.,0.,0.));
#19 = AXIS2_PLACEMENT_3D('',#20,#21,#22);
#20 = CARTESIAN_POINT('',(0.,-0.4,-21.));
#21 = DIRECTION('',(0.,0.,1.));
#22 = DIRECTION('',(1.,0.,0.));
#23 = ( GEOMETRIC_REPRESENTATION_CONTEXT(3) 
GLOBAL_UNCERTAINTY_ASSIGNED_CONTEXT((#27)) GLOBAL_UNIT_ASSIGNED_CONTEXT(
(#24,#25,#26)) REPRESENTATION_CONTEXT('Context #1',
  '3D Context with UNIT and UNCERTAINTY') );
#24 = ( LENGTH_UNIT() NAMED_UNIT(*) SI_UNIT(.MILLI.,.METRE.) );
#25 = ( NAMED_UNIT(*) PLANE_ANGLE_UNIT() SI_UNIT($,.RADIAN.) );
#26 = ( NAMED_UNIT(*) SI_UNIT($,.STERADIAN.) SOLID_ANGLE_UNIT() );
#27 = UNCERTAINTY_MEASURE_WITH_UNIT(LENGTH_MEASURE(1.E-07),#24,
  'distance_accuracy_value','confusion accuracy');
#28 = PRODUCT_RELATED_PRODUCT_CATEGORY('part',$,(#7));
#29 = SHAPE_DEFINITION_REPRESENTATION(#30,#36);
#30 = PRODUCT_DEFINITION_SHAPE('','',#31);
#31 = PRODUCT_DEFINITION('design','',#32,#35);
#32 = PRODUCT_DEFINITION_FORMATION('','',#33);
#33 = PRODUCT('Body','Body','',(#34));
#34 = PRODUCT_CONTEXT('',#2,'mechanical');
#35 = PRODUCT_DEFINITION_CONTEXT('part definition',#2,'design');
#36 = ADVANCED_BREP_SHAPE_REPRESENTATION('',(#11,#37),#791);
#37 = MANIFOLD_SOLID_BREP('',#38);
#38 = CLOSED_SHELL('',(#39,#79,#112,#145,#178,#211,#242,#275,#308,#367,
    #392,#451,#476,#507,#540,#558,#576,#594,#619,#652,#669,#700,#731,
    #750,#762,#779));
#39 = ADVANCED_FACE('',(#40),#74,.F.);
#40 = FACE_BOUND('',#41,.F.);
#41 = EDGE_LOOP('',(#42,#52,#60,#68));
#42 = ORIENTED_EDGE('',*,*,#43,.T.);
#43 = EDGE_CURVE('',#44,#46,#48,.T.);
#44 = VERTEX_POINT('',#45);
#45 = CARTESIAN_POINT('',(2.164934898019E-15,0.508608,0.3));
#46 = VERTEX_POINT('',#47);
#47 = CARTESIAN_POINT('',(-2.198241588758E-14,0.508608,4.2));
#48 = LINE('',#49,#50);
#49 = CARTESIAN_POINT('',(-9.992007221428E-15,0.508608,0.));
#50 = VECTOR('',#51,1.);
#51 = DIRECTION('',(0.,0.,1.));
#52 = ORIENTED_EDGE('',*,*,#53,.T.);
#53 = EDGE_CURVE('',#46,#54,#56,.T.);
#54 = VERTEX_POINT('',#55);
#55 = CARTESIAN_POINT('',(2.164934898019E-15,5.991392,4.2));
#56 = LINE('',#57,#58);
#57 = CARTESIAN_POINT('',(2.164934898019E-15,0.508608,4.2));
#58 = VECTOR('',#59,1.);
#59 = DIRECTION('',(0.,1.,0.));
#60 = ORIENTED_EDGE('',*,*,#61,.F.);
#61 = EDGE_CURVE('',#62,#54,#64,.T.);
#62 = VERTEX_POINT('',#63);
#63 = CARTESIAN_POINT('',(2.164934898019E-15,5.991392,0.3));
#64 = LINE('',#65,#66);
#65 = CARTESIAN_POINT('',(1.998401444325E-15,5.991392,0.));
#66 = VECTOR('',#67,1.);
#67 = DIRECTION('',(0.,0.,1.));
#68 = ORIENTED_EDGE('',*,*,#69,.F.);
#69 = EDGE_CURVE('',#44,#62,#70,.T.);
#70 = LINE('',#71,#72);
#71 = CARTESIAN_POINT('',(2.164934898019E-15,0.508608,0.3));
#72 = VECTOR('',#73,1.);
#73 = DIRECTION('',(0.,1.,0.));
#74 = PLANE('',#75);
#75 = AXIS2_PLACEMENT_3D('',#76,#77,#78);
#76 = CARTESIAN_POINT('',(1.998401444325E-15,0.508608,0.));
#77 = DIRECTION('',(-1.,0.,0.));
#78 = DIRECTION('',(0.,1.,0.));
#79 = ADVANCED_FACE('',(#80),#107,.T.);
#80 = FACE_BOUND('',#81,.F.);
#81 = EDGE_LOOP('',(#82,#92,#99,#100));
#82 = ORIENTED_EDGE('',*,*,#83,.T.);
#83 = EDGE_CURVE('',#84,#86,#88,.T.);
#84 = VERTEX_POINT('',#85);
#85 = CARTESIAN_POINT('',(-0.508608,-1.110223024625E-16,0.3));
#86 = VERTEX_POINT('',#87);
#87 = CARTESIAN_POINT('',(-0.508608,-1.110223024625E-16,4.2));
#88 = LINE('',#89,#90);
#89 = CARTESIAN_POINT('',(-0.508608,-4.233495424239E-17,0.));
#90 = VECTOR('',#91,1.);
#91 = DIRECTION('',(0.,0.,1.));
#92 = ORIENTED_EDGE('',*,*,#93,.T.);
#93 = EDGE_CURVE('',#86,#46,#94,.T.);
#94 = CIRCLE('',#95,0.508608);
#95 = AXIS2_PLACEMENT_3D('',#96,#97,#98);
#96 = CARTESIAN_POINT('',(-0.508608,0.508608,4.2));
#97 = DIRECTION('',(0.,0.,1.));
#98 = DIRECTION('',(-2.182865831102E-16,-1.,0.));
#99 = ORIENTED_EDGE('',*,*,#43,.F.);
#100 = ORIENTED_EDGE('',*,*,#101,.F.);
#101 = EDGE_CURVE('',#84,#44,#102,.T.);
#102 = CIRCLE('',#103,0.508608);
#103 = AXIS2_PLACEMENT_3D('',#104,#105,#106);
#104 = CARTESIAN_POINT('',(-0.508608,0.508608,0.3));
#105 = DIRECTION('',(0.,0.,1.));
#106 = DIRECTION('',(-2.182865831102E-16,-1.,0.));
#107 = CYLINDRICAL_SURFACE('',#108,0.508608);
#108 = AXIS2_PLACEMENT_3D('',#109,#110,#111);
#109 = CARTESIAN_POINT('',(-0.508608,0.508608,0.));
#110 = DIRECTION('',(-0.,-0.,-1.));
#111 = DIRECTION('',(1.,0.,0.));
#112 = ADVANCED_FACE('',(#113),#140,.T.);
#113 = FACE_BOUND('',#114,.T.);
#114 = EDGE_LOOP('',(#115,#124,#132,#139));
#115 = ORIENTED_EDGE('',*,*,#116,.T.);
#116 = EDGE_CURVE('',#44,#117,#119,.T.);
#117 = VERTEX_POINT('',#118);
#118 = CARTESIAN_POINT('',(-0.3,0.508608,-5.551115123126E-17));
#119 = CIRCLE('',#120,0.3);
#120 = AXIS2_PLACEMENT_3D('',#121,#122,#123);
#121 = CARTESIAN_POINT('',(-0.3,0.508608,0.3));
#122 = DIRECTION('',(-0.,1.,0.));
#123 = DIRECTION('',(1.,0.,0.));
#124 = ORIENTED_EDGE('',*,*,#125,.T.);
#125 = EDGE_CURVE('',#117,#126,#128,.T.);
#126 = VERTEX_POINT('',#127);
#127 = CARTESIAN_POINT('',(-0.3,5.991392,-5.551115123126E-17));
#128 = LINE('',#129,#130);
#129 = CARTESIAN_POINT('',(-0.3,0.508608,-5.551115123126E-17));
#130 = VECTOR('',#131,1.);
#131 = DIRECTION('',(0.,1.,0.));
#132 = ORIENTED_EDGE('',*,*,#133,.F.);
#133 = EDGE_CURVE('',#62,#126,#134,.T.);
#134 = CIRCLE('',#135,0.3);
#135 = AXIS2_PLACEMENT_3D('',#136,#137,#138);
#136 = CARTESIAN_POINT('',(-0.3,5.991392,0.3));
#137 = DIRECTION('',(-0.,1.,0.));
#138 = DIRECTION('',(1.,0.,0.));
#139 = ORIENTED_EDGE('',*,*,#69,.F.);
#140 = CYLINDRICAL_SURFACE('',#141,0.3);
#141 = AXIS2_PLACEMENT_3D('',#142,#143,#144);
#142 = CARTESIAN_POINT('',(-0.3,0.508608,0.3));
#143 = DIRECTION('',(0.,1.,0.));
#144 = DIRECTION('',(1.,0.,0.));
#145 = ADVANCED_FACE('',(#146),#173,.T.);
#146 = FACE_BOUND('',#147,.F.);
#147 = EDGE_LOOP('',(#148,#157,#165,#172));
#148 = ORIENTED_EDGE('',*,*,#149,.T.);
#149 = EDGE_CURVE('',#46,#150,#152,.T.);
#150 = VERTEX_POINT('',#151);
#151 = CARTESIAN_POINT('',(-0.3,0.508608,4.5));
#152 = CIRCLE('',#153,0.3);
#153 = AXIS2_PLACEMENT_3D('',#154,#155,#156);
#154 = CARTESIAN_POINT('',(-0.3,0.508608,4.2));
#155 = DIRECTION('',(-2.795189230676E-16,-1.,0.));
#156 = DIRECTION('',(1.,-2.795189230676E-16,0.));
#157 = ORIENTED_EDGE('',*,*,#158,.T.);
#158 = EDGE_CURVE('',#150,#159,#161,.T.);
#159 = VERTEX_POINT('',#160);
#160 = CARTESIAN_POINT('',(-0.3,5.991392,4.5));
#161 = LINE('',#162,#163);
#162 = CARTESIAN_POINT('',(-0.3,0.508608,4.5));
#163 = VECTOR('',#164,1.);
#164 = DIRECTION('',(0.,1.,0.));
#165 = ORIENTED_EDGE('',*,*,#166,.F.);
#166 = EDGE_CURVE('',#54,#159,#167,.T.);
#167 = CIRCLE('',#168,0.3);
#168 = AXIS2_PLACEMENT_3D('',#169,#170,#171);
#169 = CARTESIAN_POINT('',(-0.3,5.991392,4.2));
#170 = DIRECTION('',(0.,-1.,0.));
#171 = DIRECTION('',(1.,0.,0.));
#172 = ORIENTED_EDGE('',*,*,#53,.F.);
#173 = CYLINDRICAL_SURFACE('',#174,0.3);
#174 = AXIS2_PLACEMENT_3D('',#175,#176,#177);
#175 = CARTESIAN_POINT('',(-0.3,0.508608,4.2));
#176 = DIRECTION('',(0.,1.,0.));
#177 = DIRECTION('',(1.,0.,0.));
#178 = ADVANCED_FACE('',(#179),#206,.T.);
#179 = FACE_BOUND('',#180,.F.);
#180 = EDGE_LOOP('',(#181,#182,#191,#199));
#181 = ORIENTED_EDGE('',*,*,#61,.T.);
#182 = ORIENTED_EDGE('',*,*,#183,.T.);
#183 = EDGE_CURVE('',#54,#184,#186,.T.);
#184 = VERTEX_POINT('',#185);
#185 = CARTESIAN_POINT('',(-0.508608,6.5,4.2));
#186 = CIRCLE('',#187,0.508608);
#187 = AXIS2_PLACEMENT_3D('',#188,#189,#190);
#188 = CARTESIAN_POINT('',(-0.508608,5.991392,4.2));
#189 = DIRECTION('',(0.,0.,1.));
#190 = DIRECTION('',(1.,0.,0.));
#191 = ORIENTED_EDGE('',*,*,#192,.F.);
#192 = EDGE_CURVE('',#193,#184,#195,.T.);
#193 = VERTEX_POINT('',#194);
#194 = CARTESIAN_POINT('',(-0.508608,6.5,0.3));
#195 = LINE('',#196,#197);
#196 = CARTESIAN_POINT('',(-0.508608,6.5,0.));
#197 = VECTOR('',#198,1.);
#198 = DIRECTION('',(0.,0.,1.));
#199 = ORIENTED_EDGE('',*,*,#200,.F.);
#200 = EDGE_CURVE('',#62,#193,#201,.T.);
#201 = CIRCLE('',#202,0.508608);
#202 = AXIS2_PLACEMENT_3D('',#203,#204,#205);
#203 = CARTESIAN_POINT('',(-0.508608,5.991392,0.3));
#204 = DIRECTION('',(0.,0.,1.));
#205 = DIRECTION('',(1.,0.,0.));
#206 = CYLINDRICAL_SURFACE('',#207,0.508608);
#207 = AXIS2_PLACEMENT_3D('',#208,#209,#210);
#208 = CARTESIAN_POINT('',(-0.508608,5.991392,0.));
#209 = DIRECTION('',(-0.,-0.,-1.));
#210 = DIRECTION('',(1.,0.,0.));
#211 = ADVANCED_FACE('',(#212),#237,.F.);
#212 = FACE_BOUND('',#213,.F.);
#213 = EDGE_LOOP('',(#214,#224,#230,#231));
#214 = ORIENTED_EDGE('',*,*,#215,.T.);
#215 = EDGE_CURVE('',#216,#218,#220,.T.);
#216 = VERTEX_POINT('',#217);
#217 = CARTESIAN_POINT('',(-5.991392,-2.22044604925E-16,0.3));
#218 = VERTEX_POINT('',#219);
#219 = CARTESIAN_POINT('',(-5.991392,-2.22044604925E-16,4.2));
#220 = LINE('',#221,#222);
#221 = CARTESIAN_POINT('',(-5.991392,-4.233495506941E-17,0.));
#222 = VECTOR('',#223,1.);
#223 = DIRECTION('',(0.,0.,1.));
#224 = ORIENTED_EDGE('',*,*,#225,.T.);
#225 = EDGE_CURVE('',#218,#86,#226,.T.);
#226 = LINE('',#227,#228);
#227 = CARTESIAN_POINT('',(-5.991392,-1.110223024625E-16,4.2));
#228 = VECTOR('',#229,1.);
#229 = DIRECTION('',(1.,0.,0.));
#230 = ORIENTED_EDGE('',*,*,#83,.F.);
#231 = ORIENTED_EDGE('',*,*,#232,.F.);
#232 = EDGE_CURVE('',#216,#84,#233,.T.);
#233 = LINE('',#234,#235);
#234 = CARTESIAN_POINT('',(-5.991392,-1.110223024625E-16,0.3));
#235 = VECTOR('',#236,1.);
#236 = DIRECTION('',(1.,0.,0.));
#237 = PLANE('',#238);
#238 = AXIS2_PLACEMENT_3D('',#239,#240,#241);
#239 = CARTESIAN_POINT('',(-5.991392,-8.466990963375E-17,0.));
#240 = DIRECTION('',(0.,1.,0.));
#241 = DIRECTION('',(1.,0.,0.));
#242 = ADVANCED_FACE('',(#243),#263,.T.);
#243 = FACE_BOUND('',#244,.F.);
#244 = EDGE_LOOP('',(#245,#254,#255,#256));
#245 = ORIENTED_EDGE('',*,*,#246,.F.);
#246 = EDGE_CURVE('',#84,#247,#249,.T.);
#247 = VERTEX_POINT('',#248);
#248 = CARTESIAN_POINT('',(-0.508608,0.3,-5.551115123126E-17));
#249 = CIRCLE('',#250,0.3);
#250 = AXIS2_PLACEMENT_3D('',#251,#252,#253);
#251 = CARTESIAN_POINT('',(-0.508608,0.3,0.3));
#252 = DIRECTION('',(1.,0.,0.));
#253 = DIRECTION('',(0.,-1.,0.));
#254 = ORIENTED_EDGE('',*,*,#101,.T.);
#255 = ORIENTED_EDGE('',*,*,#116,.T.);
#256 = ORIENTED_EDGE('',*,*,#257,.F.);
#257 = EDGE_CURVE('',#247,#117,#258,.T.);
#258 = CIRCLE('',#259,0.208608);
#259 = AXIS2_PLACEMENT_3D('',#260,#261,#262);
#260 = CARTESIAN_POINT('',(-0.508608,0.508608,0.));
#261 = DIRECTION('',(0.,0.,1.));
#262 = DIRECTION('',(-2.182865831102E-16,-1.,0.));
#263 = SURFACE_OF_REVOLUTION('',#264,#272);
#264 = B_SPLINE_CURVE_WITH_KNOTS('',6,(#265,#266,#267,#268,#269,#270,
    #271),.UNSPECIFIED.,.F.,.F.,(7,7),(0.,1.570796326795),
  .PIECEWISE_BEZIER_KNOTS.);
#265 = CARTESIAN_POINT('',(-0.508608,-1.804112415016E-16,0.3));
#266 = CARTESIAN_POINT('',(-0.508608,-1.165467722331E-16,0.22146018366)
  );
#267 = CARTESIAN_POINT('',(-0.508608,2.466830580608E-02,0.142927049788)
  );
#268 = CARTESIAN_POINT('',(-0.508608,7.404295510794E-02,
    7.404295510795E-02));
#269 = CARTESIAN_POINT('',(-0.508608,0.142927049788,2.466830580608E-02)
  );
#270 = CARTESIAN_POINT('',(-0.508608,0.22146018366,2.26381413615E-16));
#271 = CARTESIAN_POINT('',(-0.508608,0.3,0.));
#272 = AXIS1_PLACEMENT('',#273,#274);
#273 = CARTESIAN_POINT('',(-0.508608,0.508608,0.3));
#274 = DIRECTION('',(-0.,-0.,-1.));
#275 = ADVANCED_FACE('',(#276),#296,.T.);
#276 = FACE_BOUND('',#277,.T.);
#277 = EDGE_LOOP('',(#278,#287,#288,#289));
#278 = ORIENTED_EDGE('',*,*,#279,.F.);
#279 = EDGE_CURVE('',#86,#280,#282,.T.);
#280 = VERTEX_POINT('',#281);
#281 = CARTESIAN_POINT('',(-0.508608,0.3,4.5));
#282 = CIRCLE('',#283,0.3);
#283 = AXIS2_PLACEMENT_3D('',#284,#285,#286);
#284 = CARTESIAN_POINT('',(-0.508608,0.3,4.2));
#285 = DIRECTION('',(-1.,0.,0.));
#286 = DIRECTION('',(0.,-1.,0.));
#287 = ORIENTED_EDGE('',*,*,#93,.T.);
#288 = ORIENTED_EDGE('',*,*,#149,.T.);
#289 = ORIENTED_EDGE('',*,*,#290,.F.);
#290 = EDGE_CURVE('',#280,#150,#291,.T.);
#291 = CIRCLE('',#292,0.208608);
#292 = AXIS2_PLACEMENT_3D('',#293,#294,#295);
#293 = CARTESIAN_POINT('',(-0.508608,0.508608,4.5));
#294 = DIRECTION('',(0.,0.,1.));
#295 = DIRECTION('',(-2.182865831102E-16,-1.,0.));
#296 = SURFACE_OF_REVOLUTION('',#297,#305);
#297 = B_SPLINE_CURVE_WITH_KNOTS('',6,(#298,#299,#300,#301,#302,#303,
    #304),.UNSPECIFIED.,.F.,.F.,(7,7),(0.,1.570796326795),
  .PIECEWISE_BEZIER_KNOTS.);
#298 = CARTESIAN_POINT('',(-0.508608,-1.804112415016E-16,4.2));
#299 = CARTESIAN_POINT('',(-0.508608,-1.165467722331E-16,4.27853981634)
  );
#300 = CARTESIAN_POINT('',(-0.508608,2.466830580608E-02,4.357072950212)
  );
#301 = CARTESIAN_POINT('',(-0.508608,7.404295510794E-02,4.425957044892)
  );
#302 = CARTESIAN_POINT('',(-0.508608,0.142927049788,4.475331694194));
#303 = CARTESIAN_POINT('',(-0.508608,0.22146018366,4.5));
#304 = CARTESIAN_POINT('',(-0.508608,0.3,4.5));
#305 = AXIS1_PLACEMENT('',#306,#307);
#306 = CARTESIAN_POINT('',(-0.508608,0.508608,4.2));
#307 = DIRECTION('',(0.,0.,1.));
#308 = ADVANCED_FACE('',(#309),#362,.F.);
#309 = FACE_BOUND('',#310,.F.);
#310 = EDGE_LOOP('',(#311,#312,#321,#329,#338,#346,#355,#361));
#311 = ORIENTED_EDGE('',*,*,#125,.T.);
#312 = ORIENTED_EDGE('',*,*,#313,.T.);
#313 = EDGE_CURVE('',#126,#314,#316,.T.);
#314 = VERTEX_POINT('',#315);
#315 = CARTESIAN_POINT('',(-0.508608,6.2,0.));
#316 = CIRCLE('',#317,0.208608);
#317 = AXIS2_PLACEMENT_3D('',#318,#319,#320);
#318 = CARTESIAN_POINT('',(-0.508608,5.991392,0.));
#319 = DIRECTION('',(0.,0.,1.));
#320 = DIRECTION('',(1.,0.,0.));
#321 = ORIENTED_EDGE('',*,*,#322,.T.);
#322 = EDGE_CURVE('',#314,#323,#325,.T.);
#323 = VERTEX_POINT('',#324);
#324 = CARTESIAN_POINT('',(-5.991392,6.2,-5.551115123126E-17));
#325 = LINE('',#326,#327);
#326 = CARTESIAN_POINT('',(-0.508608,6.2,-5.551115123126E-17));
#327 = VECTOR('',#328,1.);
#328 = DIRECTION('',(-1.,0.,0.));
#329 = ORIENTED_EDGE('',*,*,#330,.T.);
#330 = EDGE_CURVE('',#323,#331,#333,.T.);
#331 = VERTEX_POINT('',#332);
#332 = CARTESIAN_POINT('',(-6.2,5.991392,0.));
#333 = CIRCLE('',#334,0.208608);
#334 = AXIS2_PLACEMENT_3D('',#335,#336,#337);
#335 = CARTESIAN_POINT('',(-5.991392,5.991392,0.));
#336 = DIRECTION('',(0.,-0.,1.));
#337 = DIRECTION('',(0.,1.,0.));
#338 = ORIENTED_EDGE('',*,*,#339,.T.);
#339 = EDGE_CURVE('',#331,#340,#342,.T.);
#340 = VERTEX_POINT('',#341);
#341 = CARTESIAN_POINT('',(-6.2,0.508608,-5.551115123126E-17));
#342 = LINE('',#343,#344);
#343 = CARTESIAN_POINT('',(-6.2,5.991392,-5.551115123126E-17));
#344 = VECTOR('',#345,1.);
#345 = DIRECTION('',(0.,-1.,0.));
#346 = ORIENTED_EDGE('',*,*,#347,.T.);
#347 = EDGE_CURVE('',#340,#348,#350,.T.);
#348 = VERTEX_POINT('',#349);
#349 = CARTESIAN_POINT('',(-5.991392,0.3,0.));
#350 = CIRCLE('',#351,0.208608);
#351 = AXIS2_PLACEMENT_3D('',#352,#353,#354);
#352 = CARTESIAN_POINT('',(-5.991392,0.508608,0.));
#353 = DIRECTION('',(0.,0.,1.));
#354 = DIRECTION('',(-1.,6.548597493306E-16,0.));
#355 = ORIENTED_EDGE('',*,*,#356,.T.);
#356 = EDGE_CURVE('',#348,#247,#357,.T.);
#357 = LINE('',#358,#359);
#358 = CARTESIAN_POINT('',(-5.991392,0.3,-5.551115123126E-17));
#359 = VECTOR('',#360,1.);
#360 = DIRECTION('',(1.,0.,0.));
#361 = ORIENTED_EDGE('',*,*,#257,.T.);
#362 = PLANE('',#363);
#363 = AXIS2_PLACEMENT_3D('',#364,#365,#366);
#364 = CARTESIAN_POINT('',(-3.25,3.25,0.));
#365 = DIRECTION('',(0.,0.,1.));
#366 = DIRECTION('',(1.,0.,0.));
#367 = ADVANCED_FACE('',(#368),#380,.T.);
#368 = FACE_BOUND('',#369,.F.);
#369 = EDGE_LOOP('',(#370,#371,#372,#379));
#370 = ORIENTED_EDGE('',*,*,#133,.F.);
#371 = ORIENTED_EDGE('',*,*,#200,.T.);
#372 = ORIENTED_EDGE('',*,*,#373,.T.);
#373 = EDGE_CURVE('',#193,#314,#374,.T.);
#374 = CIRCLE('',#375,0.3);
#375 = AXIS2_PLACEMENT_3D('',#376,#377,#378);
#376 = CARTESIAN_POINT('',(-0.508608,6.2,0.3));
#377 = DIRECTION('',(-1.,6.123233995737E-17,0.));
#378 = DIRECTION('',(6.123233995737E-17,1.,0.));
#379 = ORIENTED_EDGE('',*,*,#313,.F.);
#380 = SURFACE_OF_REVOLUTION('',#381,#389);
#381 = B_SPLINE_CURVE_WITH_KNOTS('',6,(#382,#383,#384,#385,#386,#387,
    #388),.UNSPECIFIED.,.F.,.F.,(7,7),(0.,1.570796326795),
  .PIECEWISE_BEZIER_KNOTS.);
#382 = CARTESIAN_POINT('',(1.956768080902E-15,5.991392,0.3));
#383 = CARTESIAN_POINT('',(1.782733960454E-15,5.991392,0.22146018366));
#384 = CARTESIAN_POINT('',(-2.466830580608E-02,5.991392,0.142927049788)
  );
#385 = CARTESIAN_POINT('',(-7.404295510794E-02,5.991392,
    7.404295510795E-02));
#386 = CARTESIAN_POINT('',(-0.142927049788,5.991392,2.466830580608E-02)
  );
#387 = CARTESIAN_POINT('',(-0.22146018366,5.991392,2.26381413615E-16));
#388 = CARTESIAN_POINT('',(-0.3,5.991392,0.));
#389 = AXIS1_PLACEMENT('',#390,#391);
#390 = CARTESIAN_POINT('',(-0.508608,5.991392,0.3));
#391 = DIRECTION('',(-0.,-0.,-1.));
#392 = ADVANCED_FACE('',(#393),#446,.T.);
#393 = FACE_BOUND('',#394,.T.);
#394 = EDGE_LOOP('',(#395,#405,#414,#420,#421,#422,#431,#439));
#395 = ORIENTED_EDGE('',*,*,#396,.T.);
#396 = EDGE_CURVE('',#397,#399,#401,.T.);
#397 = VERTEX_POINT('',#398);
#398 = CARTESIAN_POINT('',(-6.2,5.991392,4.5));
#399 = VERTEX_POINT('',#400);
#400 = CARTESIAN_POINT('',(-6.2,0.508608,4.5));
#401 = LINE('',#402,#403);
#402 = CARTESIAN_POINT('',(-6.2,5.991392,4.5));
#403 = VECTOR('',#404,1.);
#404 = DIRECTION('',(0.,-1.,0.));
#405 = ORIENTED_EDGE('',*,*,#406,.T.);
#406 = EDGE_CURVE('',#399,#407,#409,.T.);
#407 = VERTEX_POINT('',#408);
#408 = CARTESIAN_POINT('',(-5.991392,0.3,4.5));
#409 = CIRCLE('',#410,0.208608);
#410 = AXIS2_PLACEMENT_3D('',#411,#412,#413);
#411 = CARTESIAN_POINT('',(-5.991392,0.508608,4.5));
#412 = DIRECTION('',(0.,0.,1.));
#413 = DIRECTION('',(-1.,6.548597493306E-16,0.));
#414 = ORIENTED_EDGE('',*,*,#415,.T.);
#415 = EDGE_CURVE('',#407,#280,#416,.T.);
#416 = LINE('',#417,#418);
#417 = CARTESIAN_POINT('',(-5.991392,0.3,4.5));
#418 = VECTOR('',#419,1.);
#419 = DIRECTION('',(1.,0.,0.));
#420 = ORIENTED_EDGE('',*,*,#290,.T.);
#421 = ORIENTED_EDGE('',*,*,#158,.T.);
#422 = ORIENTED_EDGE('',*,*,#423,.T.);
#423 = EDGE_CURVE('',#159,#424,#426,.T.);
#424 = VERTEX_POINT('',#425);
#425 = CARTESIAN_POINT('',(-0.508608,6.2,4.5));
#426 = CIRCLE('',#427,0.208608);
#427 = AXIS2_PLACEMENT_3D('',#428,#429,#430);
#428 = CARTESIAN_POINT('',(-0.508608,5.991392,4.5));
#429 = DIRECTION('',(0.,0.,1.));
#430 = DIRECTION('',(1.,0.,0.));
#431 = ORIENTED_EDGE('',*,*,#432,.T.);
#432 = EDGE_CURVE('',#424,#433,#435,.T.);
#433 = VERTEX_POINT('',#434);
#434 = CARTESIAN_POINT('',(-5.991392,6.2,4.5));
#435 = LINE('',#436,#437);
#436 = CARTESIAN_POINT('',(-0.508608,6.2,4.5));
#437 = VECTOR('',#438,1.);
#438 = DIRECTION('',(-1.,0.,0.));
#439 = ORIENTED_EDGE('',*,*,#440,.T.);
#440 = EDGE_CURVE('',#433,#397,#441,.T.);
#441 = CIRCLE('',#442,0.208608);
#442 = AXIS2_PLACEMENT_3D('',#443,#444,#445);
#443 = CARTESIAN_POINT('',(-5.991392,5.991392,4.5));
#444 = DIRECTION('',(0.,-0.,1.));
#445 = DIRECTION('',(0.,1.,0.));
#446 = PLANE('',#447);
#447 = AXIS2_PLACEMENT_3D('',#448,#449,#450);
#448 = CARTESIAN_POINT('',(-3.25,3.25,4.5));
#449 = DIRECTION('',(0.,0.,1.));
#450 = DIRECTION('',(1.,0.,0.));
#451 = ADVANCED_FACE('',(#452),#464,.T.);
#452 = FACE_BOUND('',#453,.T.);
#453 = EDGE_LOOP('',(#454,#455,#456,#463));
#454 = ORIENTED_EDGE('',*,*,#166,.F.);
#455 = ORIENTED_EDGE('',*,*,#183,.T.);
#456 = ORIENTED_EDGE('',*,*,#457,.T.);
#457 = EDGE_CURVE('',#184,#424,#458,.T.);
#458 = CIRCLE('',#459,0.3);
#459 = AXIS2_PLACEMENT_3D('',#460,#461,#462);
#460 = CARTESIAN_POINT('',(-0.508608,6.2,4.2));
#461 = DIRECTION('',(1.,-6.123233995737E-17,0.));
#462 = DIRECTION('',(6.123233995737E-17,1.,0.));
#463 = ORIENTED_EDGE('',*,*,#423,.F.);
#464 = SURFACE_OF_REVOLUTION('',#465,#473);
#465 = B_SPLINE_CURVE_WITH_KNOTS('',6,(#466,#467,#468,#469,#470,#471,
    #472),.UNSPECIFIED.,.F.,.F.,(7,7),(0.,1.570796326795),
  .PIECEWISE_BEZIER_KNOTS.);
#466 = CARTESIAN_POINT('',(1.956768080902E-15,5.991392,4.2));
#467 = CARTESIAN_POINT('',(1.782733960454E-15,5.991392,4.27853981634));
#468 = CARTESIAN_POINT('',(-2.466830580608E-02,5.991392,4.357072950212)
  );
#469 = CARTESIAN_POINT('',(-7.404295510794E-02,5.991392,4.425957044892)
  );
#470 = CARTESIAN_POINT('',(-0.142927049788,5.991392,4.475331694194));
#471 = CARTESIAN_POINT('',(-0.22146018366,5.991392,4.5));
#472 = CARTESIAN_POINT('',(-0.3,5.991392,4.5));
#473 = AXIS1_PLACEMENT('',#474,#475);
#474 = CARTESIAN_POINT('',(-0.508608,5.991392,4.2));
#475 = DIRECTION('',(0.,0.,1.));
#476 = ADVANCED_FACE('',(#477),#502,.F.);
#477 = FACE_BOUND('',#478,.F.);
#478 = EDGE_LOOP('',(#479,#480,#488,#496));
#479 = ORIENTED_EDGE('',*,*,#192,.T.);
#480 = ORIENTED_EDGE('',*,*,#481,.T.);
#481 = EDGE_CURVE('',#184,#482,#484,.T.);
#482 = VERTEX_POINT('',#483);
#483 = CARTESIAN_POINT('',(-5.991392,6.5,4.2));
#484 = LINE('',#485,#486);
#485 = CARTESIAN_POINT('',(-0.508608,6.5,4.2));
#486 = VECTOR('',#487,1.);
#487 = DIRECTION('',(-1.,0.,0.));
#488 = ORIENTED_EDGE('',*,*,#489,.F.);
#489 = EDGE_CURVE('',#490,#482,#492,.T.);
#490 = VERTEX_POINT('',#491);
#491 = CARTESIAN_POINT('',(-5.991392,6.5,0.3));
#492 = LINE('',#493,#494);
#493 = CARTESIAN_POINT('',(-5.991392,6.5,0.));
#494 = VECTOR('',#495,1.);
#495 = DIRECTION('',(0.,0.,1.));
#496 = ORIENTED_EDGE('',*,*,#497,.F.);
#497 = EDGE_CURVE('',#193,#490,#498,.T.);
#498 = LINE('',#499,#500);
#499 = CARTESIAN_POINT('',(-0.508608,6.5,0.3));
#500 = VECTOR('',#501,1.);
#501 = DIRECTION('',(-1.,0.,0.));
#502 = PLANE('',#503);
#503 = AXIS2_PLACEMENT_3D('',#504,#505,#506);
#504 = CARTESIAN_POINT('',(-0.508608,6.5,0.));
#505 = DIRECTION('',(0.,-1.,0.));
#506 = DIRECTION('',(-1.,0.,0.));
#507 = ADVANCED_FACE('',(#508),#535,.T.);
#508 = FACE_BOUND('',#509,.F.);
#509 = EDGE_LOOP('',(#510,#520,#527,#528));
#510 = ORIENTED_EDGE('',*,*,#511,.T.);
#511 = EDGE_CURVE('',#512,#514,#516,.T.);
#512 = VERTEX_POINT('',#513);
#513 = CARTESIAN_POINT('',(-6.5,0.508608,0.3));
#514 = VERTEX_POINT('',#515);
#515 = CARTESIAN_POINT('',(-6.5,0.508608,4.2));
#516 = LINE('',#517,#518);
#517 = CARTESIAN_POINT('',(-6.5,0.508608,0.));
#518 = VECTOR('',#519,1.);
#519 = DIRECTION('',(0.,0.,1.));
#520 = ORIENTED_EDGE('',*,*,#521,.T.);
#521 = EDGE_CURVE('',#514,#218,#522,.T.);
#522 = CIRCLE('',#523,0.508608);
#523 = AXIS2_PLACEMENT_3D('',#524,#525,#526);
#524 = CARTESIAN_POINT('',(-5.991392,0.508608,4.2));
#525 = DIRECTION('',(0.,0.,1.));
#526 = DIRECTION('',(-1.,6.548597493306E-16,0.));
#527 = ORIENTED_EDGE('',*,*,#215,.F.);
#528 = ORIENTED_EDGE('',*,*,#529,.F.);
#529 = EDGE_CURVE('',#512,#216,#530,.T.);
#530 = CIRCLE('',#531,0.508608);
#531 = AXIS2_PLACEMENT_3D('',#532,#533,#534);
#532 = CARTESIAN_POINT('',(-5.991392,0.508608,0.3));
#533 = DIRECTION('',(0.,0.,1.));
#534 = DIRECTION('',(-1.,6.548597493306E-16,0.));
#535 = CYLINDRICAL_SURFACE('',#536,0.508608);
#536 = AXIS2_PLACEMENT_3D('',#537,#538,#539);
#537 = CARTESIAN_POINT('',(-5.991392,0.508608,0.));
#538 = DIRECTION('',(-0.,-0.,-1.));
#539 = DIRECTION('',(1.,0.,0.));
#540 = ADVANCED_FACE('',(#541),#553,.T.);
#541 = FACE_BOUND('',#542,.T.);
#542 = EDGE_LOOP('',(#543,#550,#551,#552));
#543 = ORIENTED_EDGE('',*,*,#544,.T.);
#544 = EDGE_CURVE('',#216,#348,#545,.T.);
#545 = CIRCLE('',#546,0.3);
#546 = AXIS2_PLACEMENT_3D('',#547,#548,#549);
#547 = CARTESIAN_POINT('',(-5.991392,0.3,0.3));
#548 = DIRECTION('',(1.,-1.604270508988E-15,0.));
#549 = DIRECTION('',(-1.604270508988E-15,-1.,0.));
#550 = ORIENTED_EDGE('',*,*,#356,.T.);
#551 = ORIENTED_EDGE('',*,*,#246,.F.);
#552 = ORIENTED_EDGE('',*,*,#232,.F.);
#553 = CYLINDRICAL_SURFACE('',#554,0.3);
#554 = AXIS2_PLACEMENT_3D('',#555,#556,#557);
#555 = CARTESIAN_POINT('',(-5.991392,0.3,0.3));
#556 = DIRECTION('',(1.,0.,0.));
#557 = DIRECTION('',(0.,-1.,0.));
#558 = ADVANCED_FACE('',(#559),#571,.T.);
#559 = FACE_BOUND('',#560,.F.);
#560 = EDGE_LOOP('',(#561,#568,#569,#570));
#561 = ORIENTED_EDGE('',*,*,#562,.T.);
#562 = EDGE_CURVE('',#218,#407,#563,.T.);
#563 = CIRCLE('',#564,0.3);
#564 = AXIS2_PLACEMENT_3D('',#565,#566,#567);
#565 = CARTESIAN_POINT('',(-5.991392,0.3,4.2));
#566 = DIRECTION('',(-1.,1.604270508988E-15,0.));
#567 = DIRECTION('',(-1.604270508988E-15,-1.,0.));
#568 = ORIENTED_EDGE('',*,*,#415,.T.);
#569 = ORIENTED_EDGE('',*,*,#279,.F.);
#570 = ORIENTED_EDGE('',*,*,#225,.F.);
#571 = CYLINDRICAL_SURFACE('',#572,0.3);
#572 = AXIS2_PLACEMENT_3D('',#573,#574,#575);
#573 = CARTESIAN_POINT('',(-5.991392,0.3,4.2));
#574 = DIRECTION('',(1.,0.,0.));
#575 = DIRECTION('',(0.,-1.,0.));
#576 = ADVANCED_FACE('',(#577),#589,.T.);
#577 = FACE_BOUND('',#578,.T.);
#578 = EDGE_LOOP('',(#579,#580,#581,#588));
#579 = ORIENTED_EDGE('',*,*,#373,.T.);
#580 = ORIENTED_EDGE('',*,*,#322,.T.);
#581 = ORIENTED_EDGE('',*,*,#582,.F.);
#582 = EDGE_CURVE('',#490,#323,#583,.T.);
#583 = CIRCLE('',#584,0.3);
#584 = AXIS2_PLACEMENT_3D('',#585,#586,#587);
#585 = CARTESIAN_POINT('',(-5.991392,6.2,0.3));
#586 = DIRECTION('',(-1.,0.,0.));
#587 = DIRECTION('',(0.,1.,0.));
#588 = ORIENTED_EDGE('',*,*,#497,.F.);
#589 = CYLINDRICAL_SURFACE('',#590,0.3);
#590 = AXIS2_PLACEMENT_3D('',#591,#592,#593);
#591 = CARTESIAN_POINT('',(-0.508608,6.2,0.3));
#592 = DIRECTION('',(-1.,0.,0.));
#593 = DIRECTION('',(0.,1.,0.));
#594 = ADVANCED_FACE('',(#595),#607,.T.);
#595 = FACE_BOUND('',#596,.F.);
#596 = EDGE_LOOP('',(#597,#604,#605,#606));
#597 = ORIENTED_EDGE('',*,*,#598,.F.);
#598 = EDGE_CURVE('',#512,#340,#599,.T.);
#599 = CIRCLE('',#600,0.3);
#600 = AXIS2_PLACEMENT_3D('',#601,#602,#603);
#601 = CARTESIAN_POINT('',(-6.2,0.508608,0.3));
#602 = DIRECTION('',(0.,-1.,0.));
#603 = DIRECTION('',(-1.,0.,0.));
#604 = ORIENTED_EDGE('',*,*,#529,.T.);
#605 = ORIENTED_EDGE('',*,*,#544,.T.);
#606 = ORIENTED_EDGE('',*,*,#347,.F.);
#607 = SURFACE_OF_REVOLUTION('',#608,#616);
#608 = B_SPLINE_CURVE_WITH_KNOTS('',6,(#609,#610,#611,#612,#613,#614,
    #615),.UNSPECIFIED.,.F.,.F.,(7,7),(0.,1.570796326795),
  .PIECEWISE_BEZIER_KNOTS.);
#609 = CARTESIAN_POINT('',(-6.5,0.508608,0.3));
#610 = CARTESIAN_POINT('',(-6.5,0.508608,0.22146018366));
#611 = CARTESIAN_POINT('',(-6.475331694194,0.508608,0.142927049788));
#612 = CARTESIAN_POINT('',(-6.425957044892,0.508608,7.404295510795E-02)
  );
#613 = CARTESIAN_POINT('',(-6.357072950211,0.508608,2.466830580608E-02)
  );
#614 = CARTESIAN_POINT('',(-6.27853981634,0.508608,2.26381413615E-16));
#615 = CARTESIAN_POINT('',(-6.2,0.508608,0.));
#616 = AXIS1_PLACEMENT('',#617,#618);
#617 = CARTESIAN_POINT('',(-5.991392,0.508608,0.3));
#618 = DIRECTION('',(-0.,-0.,-1.));
#619 = ADVANCED_FACE('',(#620),#640,.T.);
#620 = FACE_BOUND('',#621,.F.);
#621 = EDGE_LOOP('',(#622,#623,#632,#639));
#622 = ORIENTED_EDGE('',*,*,#582,.F.);
#623 = ORIENTED_EDGE('',*,*,#624,.T.);
#624 = EDGE_CURVE('',#490,#625,#627,.T.);
#625 = VERTEX_POINT('',#626);
#626 = CARTESIAN_POINT('',(-6.5,5.991392,0.3));
#627 = CIRCLE('',#628,0.508608);
#628 = AXIS2_PLACEMENT_3D('',#629,#630,#631);
#629 = CARTESIAN_POINT('',(-5.991392,5.991392,0.3));
#630 = DIRECTION('',(0.,-0.,1.));
#631 = DIRECTION('',(0.,1.,0.));
#632 = ORIENTED_EDGE('',*,*,#633,.T.);
#633 = EDGE_CURVE('',#625,#331,#634,.T.);
#634 = CIRCLE('',#635,0.3);
#635 = AXIS2_PLACEMENT_3D('',#636,#637,#638);
#636 = CARTESIAN_POINT('',(-6.2,5.991392,0.3));
#637 = DIRECTION('',(-5.053215498074E-16,-1.,-0.));
#638 = DIRECTION('',(-1.,5.053215498074E-16,0.));
#639 = ORIENTED_EDGE('',*,*,#330,.F.);
#640 = SURFACE_OF_REVOLUTION('',#641,#649);
#641 = B_SPLINE_CURVE_WITH_KNOTS('',6,(#642,#643,#644,#645,#646,#647,
    #648),.UNSPECIFIED.,.F.,.F.,(7,7),(0.,1.570796326795),
  .PIECEWISE_BEZIER_KNOTS.);
#642 = CARTESIAN_POINT('',(-5.991392,6.5,0.3));
#643 = CARTESIAN_POINT('',(-5.991392,6.5,0.22146018366));
#644 = CARTESIAN_POINT('',(-5.991392,6.475331694194,0.142927049788));
#645 = CARTESIAN_POINT('',(-5.991392,6.425957044892,7.404295510795E-02)
  );
#646 = CARTESIAN_POINT('',(-5.991392,6.357072950212,2.466830580608E-02)
  );
#647 = CARTESIAN_POINT('',(-5.991392,6.27853981634,2.26381413615E-16));
#648 = CARTESIAN_POINT('',(-5.991392,6.2,0.));
#649 = AXIS1_PLACEMENT('',#650,#651);
#650 = CARTESIAN_POINT('',(-5.991392,5.991392,0.3));
#651 = DIRECTION('',(-0.,-0.,-1.));
#652 = ADVANCED_FACE('',(#653),#664,.T.);
#653 = FACE_BOUND('',#654,.T.);
#654 = EDGE_LOOP('',(#655,#656,#657,#658));
#655 = ORIENTED_EDGE('',*,*,#633,.T.);
#656 = ORIENTED_EDGE('',*,*,#339,.T.);
#657 = ORIENTED_EDGE('',*,*,#598,.F.);
#658 = ORIENTED_EDGE('',*,*,#659,.F.);
#659 = EDGE_CURVE('',#625,#512,#660,.T.);
#660 = LINE('',#661,#662);
#661 = CARTESIAN_POINT('',(-6.5,5.991392,0.3));
#662 = VECTOR('',#663,1.);
#663 = DIRECTION('',(0.,-1.,0.));
#664 = CYLINDRICAL_SURFACE('',#665,0.3);
#665 = AXIS2_PLACEMENT_3D('',#666,#667,#668);
#666 = CARTESIAN_POINT('',(-6.2,5.991392,0.3));
#667 = DIRECTION('',(0.,-1.,0.));
#668 = DIRECTION('',(-1.,0.,0.));
#669 = ADVANCED_FACE('',(#670),#695,.T.);
#670 = FACE_BOUND('',#671,.F.);
#671 = EDGE_LOOP('',(#672,#681,#682,#689));
#672 = ORIENTED_EDGE('',*,*,#673,.T.);
#673 = EDGE_CURVE('',#674,#397,#676,.T.);
#674 = VERTEX_POINT('',#675);
#675 = CARTESIAN_POINT('',(-6.5,5.991392,4.2));
#676 = CIRCLE('',#677,0.3);
#677 = AXIS2_PLACEMENT_3D('',#678,#679,#680);
#678 = CARTESIAN_POINT('',(-6.2,5.991392,4.2));
#679 = DIRECTION('',(0.,1.,-0.));
#680 = DIRECTION('',(-1.,0.,0.));
#681 = ORIENTED_EDGE('',*,*,#396,.T.);
#682 = ORIENTED_EDGE('',*,*,#683,.F.);
#683 = EDGE_CURVE('',#514,#399,#684,.T.);
#684 = CIRCLE('',#685,0.3);
#685 = AXIS2_PLACEMENT_3D('',#686,#687,#688);
#686 = CARTESIAN_POINT('',(-6.2,0.508608,4.2));
#687 = DIRECTION('',(0.,1.,-0.));
#688 = DIRECTION('',(-1.,0.,0.));
#689 = ORIENTED_EDGE('',*,*,#690,.F.);
#690 = EDGE_CURVE('',#674,#514,#691,.T.);
#691 = LINE('',#692,#693);
#692 = CARTESIAN_POINT('',(-6.5,5.991392,4.2));
#693 = VECTOR('',#694,1.);
#694 = DIRECTION('',(0.,-1.,0.));
#695 = CYLINDRICAL_SURFACE('',#696,0.3);
#696 = AXIS2_PLACEMENT_3D('',#697,#698,#699);
#697 = CARTESIAN_POINT('',(-6.2,5.991392,4.2));
#698 = DIRECTION('',(0.,-1.,0.));
#699 = DIRECTION('',(-1.,0.,0.));
#700 = ADVANCED_FACE('',(#701),#719,.T.);
#701 = FACE_BOUND('',#702,.T.);
#702 = EDGE_LOOP('',(#703,#710,#717,#718));
#703 = ORIENTED_EDGE('',*,*,#704,.F.);
#704 = EDGE_CURVE('',#482,#433,#705,.T.);
#705 = CIRCLE('',#706,0.3);
#706 = AXIS2_PLACEMENT_3D('',#707,#708,#709);
#707 = CARTESIAN_POINT('',(-5.991392,6.2,4.2));
#708 = DIRECTION('',(1.,0.,0.));
#709 = DIRECTION('',(0.,1.,0.));
#710 = ORIENTED_EDGE('',*,*,#711,.T.);
#711 = EDGE_CURVE('',#482,#674,#712,.T.);
#712 = CIRCLE('',#713,0.508608);
#713 = AXIS2_PLACEMENT_3D('',#714,#715,#716);
#714 = CARTESIAN_POINT('',(-5.991392,5.991392,4.2));
#715 = DIRECTION('',(0.,-0.,1.));
#716 = DIRECTION('',(0.,1.,0.));
#717 = ORIENTED_EDGE('',*,*,#673,.T.);
#718 = ORIENTED_EDGE('',*,*,#440,.F.);
#719 = SURFACE_OF_REVOLUTION('',#720,#728);
#720 = B_SPLINE_CURVE_WITH_KNOTS('',6,(#721,#722,#723,#724,#725,#726,
    #727),.UNSPECIFIED.,.F.,.F.,(7,7),(0.,1.570796326795),
  .PIECEWISE_BEZIER_KNOTS.);
#721 = CARTESIAN_POINT('',(-5.991392,6.5,4.2));
#722 = CARTESIAN_POINT('',(-5.991392,6.5,4.27853981634));
#723 = CARTESIAN_POINT('',(-5.991392,6.475331694194,4.357072950212));
#724 = CARTESIAN_POINT('',(-5.991392,6.425957044892,4.425957044892));
#725 = CARTESIAN_POINT('',(-5.991392,6.357072950212,4.475331694194));
#726 = CARTESIAN_POINT('',(-5.991392,6.27853981634,4.5));
#727 = CARTESIAN_POINT('',(-5.991392,6.2,4.5));
#728 = AXIS1_PLACEMENT('',#729,#730);
#729 = CARTESIAN_POINT('',(-5.991392,5.991392,4.2));
#730 = DIRECTION('',(0.,0.,1.));
#731 = ADVANCED_FACE('',(#732),#738,.T.);
#732 = FACE_BOUND('',#733,.T.);
#733 = EDGE_LOOP('',(#734,#735,#736,#737));
#734 = ORIENTED_EDGE('',*,*,#683,.F.);
#735 = ORIENTED_EDGE('',*,*,#521,.T.);
#736 = ORIENTED_EDGE('',*,*,#562,.T.);
#737 = ORIENTED_EDGE('',*,*,#406,.F.);
#738 = SURFACE_OF_REVOLUTION('',#739,#747);
#739 = B_SPLINE_CURVE_WITH_KNOTS('',6,(#740,#741,#742,#743,#744,#745,
    #746),.UNSPECIFIED.,.F.,.F.,(7,7),(0.,1.570796326795),
  .PIECEWISE_BEZIER_KNOTS.);
#740 = CARTESIAN_POINT('',(-6.5,0.508608,4.2));
#741 = CARTESIAN_POINT('',(-6.5,0.508608,4.27853981634));
#742 = CARTESIAN_POINT('',(-6.475331694194,0.508608,4.357072950212));
#743 = CARTESIAN_POINT('',(-6.425957044892,0.508608,4.425957044892));
#744 = CARTESIAN_POINT('',(-6.357072950211,0.508608,4.475331694194));
#745 = CARTESIAN_POINT('',(-6.27853981634,0.508608,4.5));
#746 = CARTESIAN_POINT('',(-6.2,0.508608,4.5));
#747 = AXIS1_PLACEMENT('',#748,#749);
#748 = CARTESIAN_POINT('',(-5.991392,0.508608,4.2));
#749 = DIRECTION('',(0.,0.,1.));
#750 = ADVANCED_FACE('',(#751),#757,.T.);
#751 = FACE_BOUND('',#752,.F.);
#752 = EDGE_LOOP('',(#753,#754,#755,#756));
#753 = ORIENTED_EDGE('',*,*,#457,.T.);
#754 = ORIENTED_EDGE('',*,*,#432,.T.);
#755 = ORIENTED_EDGE('',*,*,#704,.F.);
#756 = ORIENTED_EDGE('',*,*,#481,.F.);
#757 = CYLINDRICAL_SURFACE('',#758,0.3);
#758 = AXIS2_PLACEMENT_3D('',#759,#760,#761);
#759 = CARTESIAN_POINT('',(-0.508608,6.2,4.2));
#760 = DIRECTION('',(-1.,0.,0.));
#761 = DIRECTION('',(0.,1.,0.));
#762 = ADVANCED_FACE('',(#763),#774,.T.);
#763 = FACE_BOUND('',#764,.F.);
#764 = EDGE_LOOP('',(#765,#766,#767,#773));
#765 = ORIENTED_EDGE('',*,*,#489,.T.);
#766 = ORIENTED_EDGE('',*,*,#711,.T.);
#767 = ORIENTED_EDGE('',*,*,#768,.F.);
#768 = EDGE_CURVE('',#625,#674,#769,.T.);
#769 = LINE('',#770,#771);
#770 = CARTESIAN_POINT('',(-6.5,5.991392,0.));
#771 = VECTOR('',#772,1.);
#772 = DIRECTION('',(0.,0.,1.));
#773 = ORIENTED_EDGE('',*,*,#624,.F.);
#774 = CYLINDRICAL_SURFACE('',#775,0.508608);
#775 = AXIS2_PLACEMENT_3D('',#776,#777,#778);
#776 = CARTESIAN_POINT('',(-5.991392,5.991392,0.));
#777 = DIRECTION('',(-0.,-0.,-1.));
#778 = DIRECTION('',(1.,0.,0.));
#779 = ADVANCED_FACE('',(#780),#786,.F.);
#780 = FACE_BOUND('',#781,.F.);
#781 = EDGE_LOOP('',(#782,#783,#784,#785));
#782 = ORIENTED_EDGE('',*,*,#768,.T.);
#783 = ORIENTED_EDGE('',*,*,#690,.T.);
#784 = ORIENTED_EDGE('',*,*,#511,.F.);
#785 = ORIENTED_EDGE('',*,*,#659,.F.);
#786 = PLANE('',#787);
#787 = AXIS2_PLACEMENT_3D('',#788,#789,#790);
#788 = CARTESIAN_POINT('',(-6.5,5.991392,0.));
#789 = DIRECTION('',(1.,0.,0.));
#790 = DIRECTION('',(0.,-1.,0.));
#791 = ( GEOMETRIC_REPRESENTATION_CONTEXT(3) 
GLOBAL_UNCERTAINTY_ASSIGNED_CONTEXT((#795)) GLOBAL_UNIT_ASSIGNED_CONTEXT
((#792,#793,#794)) REPRESENTATION_CONTEXT('Context #1',
  '3D Context with UNIT and UNCERTAINTY') );
#792 = ( LENGTH_UNIT() NAMED_UNIT(*) SI_UNIT(.MILLI.,.METRE.) );
#793 = ( NAMED_UNIT(*) PLANE_ANGLE_UNIT() SI_UNIT($,.RADIAN.) );
#794 = ( NAMED_UNIT(*) SI_UNIT($,.STERADIAN.) SOLID_ANGLE_UNIT() );
#795 = UNCERTAINTY_MEASURE_WITH_UNIT(LENGTH_MEASURE(1.E-07),#792,
  'distance_accuracy_value','confusion accuracy');
#796 = CONTEXT_DEPENDENT_SHAPE_REPRESENTATION(#797,#799);
#797 = ( REPRESENTATION_RELATIONSHIP('','',#36,#10) 
REPRESENTATION_RELATIONSHIP_WITH_TRANSFORMATION(#798) 
SHAPE_REPRESENTATION_RELATIONSHIP() );
#798 = ITEM_DEFINED_TRANSFORMATION('','',#11,#15);
#799 = PRODUCT_DEFINITION_SHAPE('Placement','Placement of an item',#800
  );
#800 = NEXT_ASSEMBLY_USAGE_OCCURRENCE('8','Body','',#5,#31,$);
#801 = PRODUCT_RELATED_PRODUCT_CATEGORY('part',$,(#33));
#802 = SHAPE_DEFINITION_REPRESENTATION(#803,#809);
#803 = PRODUCT_DEFINITION_SHAPE('','',#804);
#804 = PRODUCT_DEFINITION('design','',#805,#808);
#805 = PRODUCT_DEFINITION_FORMATION('','',#806);
#806 = PRODUCT('Тіло','Тіло','',(#807));
#807 = PRODUCT_CONTEXT('',#2,'mechanical');
#808 = PRODUCT_DEFINITION_CONTEXT('part definition',#2,'design');
#809 = ADVANCED_BREP_SHAPE_REPRESENTATION('',(#11,#810),#863);
#810 = MANIFOLD_SOLID_BREP('',#811);
#811 = CLOSED_SHELL('',(#812,#845,#854));
#812 = ADVANCED_FACE('',(#813),#840,.T.);
#813 = FACE_BOUND('',#814,.F.);
#814 = EDGE_LOOP('',(#815,#825,#832,#833));
#815 = ORIENTED_EDGE('',*,*,#816,.T.);
#816 = EDGE_CURVE('',#817,#819,#821,.T.);
#817 = VERTEX_POINT('',#818);
#818 = CARTESIAN_POINT('',(-5.229138,3.376382,0.));
#819 = VERTEX_POINT('',#820);
#820 = CARTESIAN_POINT('',(-5.229138,3.376382,25.));
#821 = LINE('',#822,#823);
#822 = CARTESIAN_POINT('',(-5.229138,3.376382,0.));
#823 = VECTOR('',#824,1.);
#824 = DIRECTION('',(0.,0.,1.));
#825 = ORIENTED_EDGE('',*,*,#826,.T.);
#826 = EDGE_CURVE('',#819,#819,#827,.T.);
#827 = CIRCLE('',#828,0.3);
#828 = AXIS2_PLACEMENT_3D('',#829,#830,#831);
#829 = CARTESIAN_POINT('',(-5.529138,3.376382,25.));
#830 = DIRECTION('',(0.,0.,1.));
#831 = DIRECTION('',(1.,0.,0.));
#832 = ORIENTED_EDGE('',*,*,#816,.F.);
#833 = ORIENTED_EDGE('',*,*,#834,.F.);
#834 = EDGE_CURVE('',#817,#817,#835,.T.);
#835 = CIRCLE('',#836,0.3);
#836 = AXIS2_PLACEMENT_3D('',#837,#838,#839);
#837 = CARTESIAN_POINT('',(-5.529138,3.376382,0.));
#838 = DIRECTION('',(0.,0.,1.));
#839 = DIRECTION('',(1.,0.,0.));
#840 = CYLINDRICAL_SURFACE('',#841,0.3);
#841 = AXIS2_PLACEMENT_3D('',#842,#843,#844);
#842 = CARTESIAN_POINT('',(-5.529138,3.376382,0.));
#843 = DIRECTION('',(-0.,-0.,-1.));
#844 = DIRECTION('',(1.,0.,0.));
#845 = ADVANCED_FACE('',(#846),#849,.F.);
#846 = FACE_BOUND('',#847,.F.);
#847 = EDGE_LOOP('',(#848));
#848 = ORIENTED_EDGE('',*,*,#834,.T.);
#849 = PLANE('',#850);
#850 = AXIS2_PLACEMENT_3D('',#851,#852,#853);
#851 = CARTESIAN_POINT('',(-5.529138,3.376382,0.));
#852 = DIRECTION('',(0.,0.,1.));
#853 = DIRECTION('',(1.,0.,0.));
#854 = ADVANCED_FACE('',(#855),#858,.T.);
#855 = FACE_BOUND('',#856,.T.);
#856 = EDGE_LOOP('',(#857));
#857 = ORIENTED_EDGE('',*,*,#826,.T.);
#858 = PLANE('',#859);
#859 = AXIS2_PLACEMENT_3D('',#860,#861,#862);
#860 = CARTESIAN_POINT('',(-5.529138,3.376382,25.));
#861 = DIRECTION('',(0.,0.,1.));
#862 = DIRECTION('',(1.,0.,0.));
#863 = ( GEOMETRIC_REPRESENTATION_CONTEXT(3) 
GLOBAL_UNCERTAINTY_ASSIGNED_CONTEXT((#867)) GLOBAL_UNIT_ASSIGNED_CONTEXT
((#864,#865,#866)) REPRESENTATION_CONTEXT('Context #1',
  '3D Context with UNIT and UNCERTAINTY') );
#864 = ( LENGTH_UNIT() NAMED_UNIT(*) SI_UNIT(.MILLI.,.METRE.) );
#865 = ( NAMED_UNIT(*) PLANE_ANGLE_UNIT() SI_UNIT($,.RADIAN.) );
#866 = ( NAMED_UNIT(*) SI_UNIT($,.STERADIAN.) SOLID_ANGLE_UNIT() );
#867 = UNCERTAINTY_MEASURE_WITH_UNIT(LENGTH_MEASURE(1.E-07),#864,
  'distance_accuracy_value','confusion accuracy');
#868 = CONTEXT_DEPENDENT_SHAPE_REPRESENTATION(#869,#871);
#869 = ( REPRESENTATION_RELATIONSHIP('','',#809,#10) 
REPRESENTATION_RELATIONSHIP_WITH_TRANSFORMATION(#870) 
SHAPE_REPRESENTATION_RELATIONSHIP() );
#870 = ITEM_DEFINED_TRANSFORMATION('','',#11,#19);
#871 = PRODUCT_DEFINITION_SHAPE('Placement','Placement of an item',#872
  );
#872 = NEXT_ASSEMBLY_USAGE_OCCURRENCE('9','Тіло','',#5,#804,$);
#873 = PRODUCT_RELATED_PRODUCT_CATEGORY('part',$,(#806));
#874 = MECHANICAL_DESIGN_GEOMETRIC_PRESENTATION_REPRESENTATION('',(#875)
  ,#863);
#875 = STYLED_ITEM('color',(#876),#810);
#876 = PRESENTATION_STYLE_ASSIGNMENT((#877,#883));
#877 = SURFACE_STYLE_USAGE(.BOTH.,#878);
#878 = SURFACE_SIDE_STYLE('',(#879));
#879 = SURFACE_STYLE_FILL_AREA(#880);
#880 = FILL_AREA_STYLE('',(#881));
#881 = FILL_AREA_STYLE_COLOUR('',#882);
#882 = COLOUR_RGB('',0.678430976034,0.709803998361,0.741176010593);
#883 = CURVE_STYLE('',#884,POSITIVE_LENGTH_MEASURE(0.1),#885);
#884 = DRAUGHTING_PRE_DEFINED_CURVE_FONT('continuous');
#885 = COLOUR_RGB('',9.803921802644E-02,9.803921802644E-02,
  9.803921802644E-02);
#886 = MECHANICAL_DESIGN_GEOMETRIC_PRESENTATION_REPRESENTATION('',(#887)
  ,#791);
#887 = STYLED_ITEM('color',(#888),#37);
#888 = PRESENTATION_STYLE_ASSIGNMENT((#889,#895));
#889 = SURFACE_STYLE_USAGE(.BOTH.,#890);
#890 = SURFACE_SIDE_STYLE('',(#891));
#891 = SURFACE_STYLE_FILL_AREA(#892);
#892 = FILL_AREA_STYLE('',(#893));
#893 = FILL_AREA_STYLE_COLOUR('',#894);
#894 = COLOUR_RGB('',0.199102761551,0.151310775422,0.408886988613);
#895 = CURVE_STYLE('',#896,POSITIVE_LENGTH_MEASURE(0.1),#885);
#896 = DRAUGHTING_PRE_DEFINED_CURVE_FONT('continuous');
ENDSEC;
END-ISO-10303-21;
